<?xml version="1.0" standalone="no"?>
<!DOCTYPE svg PUBLIC "-//W3C//DTD SVG 1.1//EN" "http://www.w3.org/Graphics/SVG/1.1/DTD/svg11.dtd" >
<svg xmlns="http://www.w3.org/2000/svg" xmlns:xlink="http://www.w3.org/1999/xlink" version="1.1">
<metadata>
Created by Christoph Koeberlin (http://christoph.koe.berlin)
Copyright (c) 2015 Swiss Typefaces Sarl. All rights reserved.
</metadata>
<defs>
<font id="Font" horiz-adv-x="861" >
  <font-face 
    font-family="Font"
    font-weight="400"
    font-stretch="normal"
    units-per-em="1000"
    panose-1="2 0 5 4 0 0 0 0 0 0"
    ascent="800"
    descent="-200"
    x-height="491"
    cap-height="787"
    bbox="-38 -285 1263 1011"
    underline-thickness="65"
    underline-position="-106"
    unicode-range="U+0020-FB02"
  />
<missing-glyph horiz-adv-x="670" 
 />
    <glyph glyph-name=".notdef" horiz-adv-x="670" 
 />
    <glyph glyph-name="glyph1" horiz-adv-x="0" 
 />
    <glyph glyph-name="glyph2" horiz-adv-x="230" 
 />
    <glyph glyph-name="space" unicode=" " horiz-adv-x="230" 
 />
    <glyph glyph-name="exclam" unicode="!" horiz-adv-x="311" 
d="M94 789q31 11 60 11q30 0 61 -11q-8 -80 -15.5 -154.5t-15 -148t-14 -147.5t-11.5 -153h-10q-5 79 -11.5 153.5t-13.5 148t-14.5 147.5t-15.5 154zM91 51q0 27 19 46t46 19t46 -19t19 -46t-19 -46t-46 -19t-46 19t-19 46z" />
    <glyph glyph-name="quotedbl" unicode="&#x22;" horiz-adv-x="339" 
d="M299 787l-33 -233h-37l-34 233h104zM144 787l-33 -233h-37l-34 233h104z" />
    <glyph glyph-name="numbersign" unicode="#" horiz-adv-x="653" 
d="M217 560l32 227h62l-32 -227h156l32 227h62l-32 -227h126l-8 -59h-126l-26 -189h127l-9 -59h-126l-35 -253h-63l35 253h-155l-35 -253h-62l35 253h-128l8 59h128l26 189h-129l8 59h129zM245 312h155l27 189h-156z" />
    <glyph glyph-name="dollar" unicode="$" horiz-adv-x="672" 
d="M314 853h39v-115q54 -3 100 -17t83 -31v-150h-10q-23 77 -67.5 119t-105.5 48v-288l16 -6q34 -13 72 -29t70.5 -40t54 -59.5t21.5 -86.5q0 -44 -16 -81t-46 -65t-73.5 -45t-98.5 -20v-90h-39v89q-69 2 -126.5 17.5t-102.5 45.5v160h9q29 -95 82 -142t138 -49v313l-40 16
q-96 35 -138.5 86.5t-42.5 120.5q0 40 17 73t46.5 57t70 38t87.5 16v115zM501 163q0 27 -8.5 48.5t-26.5 39.5t-46 34t-67 32v-297q74 8 111 48.5t37 94.5zM177 584q0 -46 26.5 -82.5t95.5 -62.5l15 -6v274q-65 -5 -101 -40t-36 -83z" />
    <glyph glyph-name="percent" unicode="%" horiz-adv-x="922" 
d="M125 564q0 -43 4 -77.5t13.5 -59t26.5 -37.5t43 -13t42.5 13t26.5 37.5t13.5 59t3.5 77.5q0 42 -3.5 76.5t-13.5 58.5t-26.5 37t-42.5 13t-43 -13t-26.5 -37t-13.5 -58.5t-4 -76.5zM44 564q0 49 12 89t34 68t53 43t69 15t69 -15t53 -43t34 -68t12 -89q0 -50 -12 -90
t-34 -68.5t-53 -44t-69 -15.5t-69 15.5t-53 44t-34 68.5t-12 90zM179 0l500 751h64l-500 -751h-64zM623 205q0 -43 4 -77.5t13.5 -59t26.5 -38t43 -13.5t42.5 13.5t26.5 38t13.5 59t3.5 77.5q0 42 -3.5 76t-13.5 58t-26.5 37t-42.5 13t-43 -13t-26.5 -37t-13.5 -58t-4 -76z
M542 205q0 49 12 89t34 68t53 43t69 15t69 -15t53 -43t34 -68t12 -89q0 -50 -12 -90t-34 -68.5t-53 -44t-69 -15.5t-69 15.5t-53 44t-34 68.5t-12 90z" />
    <glyph glyph-name="ampersand" unicode="&#x26;" horiz-adv-x="814" 
d="M743 481q-26 -87 -54.5 -155t-58.5 -121l184 -205h-124l-113 126q-62 -77 -128.5 -108.5t-135.5 -31.5q-70 0 -120.5 19.5t-83.5 51.5t-48.5 71.5t-15.5 80.5q0 89 61.5 149.5t189.5 81.5l-3 3q-38 42 -66 90t-28 98q0 40 16 71.5t43 53.5t62.5 33t73.5 11q35 0 67 -9
t57 -26t39.5 -43t14.5 -60t-16 -64t-42.5 -54t-60 -41t-68.5 -25l224 -250q27 49 51 112t44 141h39zM334 21q53 0 110.5 29t111.5 99l-259 289q-67 -27 -107 -80.5t-40 -144.5q0 -40 12.5 -75t36.5 -61t58 -41t77 -15zM291 665q0 -42 18 -81.5t58 -84.5l17 -20
q25 12 47 31.5t37.5 43.5t24.5 51.5t9 56.5q0 46 -25.5 77.5t-79.5 31.5q-49 0 -77.5 -29t-28.5 -77z" />
    <glyph glyph-name="quotesingle" unicode="'" horiz-adv-x="184" 
d="M144 787l-33 -233h-37l-34 233h104z" />
    <glyph glyph-name="parenleft" unicode="(" horiz-adv-x="298" 
d="M60 273q0 76 12.5 148.5t35 138t53 123t66.5 104.5h66q-39 -50 -71 -109.5t-54 -125.5t-34 -136.5t-12 -142.5t12 -143t34 -137t54 -125.5t71 -109.5h-66q-36 47 -66.5 104.5t-53 123.5t-35 138.5t-12.5 148.5z" />
    <glyph glyph-name="parenright" unicode=")" horiz-adv-x="298" 
d="M238 273q0 -76 -12.5 -148.5t-35 -138.5t-53 -123.5t-66.5 -104.5h-66q39 50 71 109.5t54 125.5t34 137t12 143t-12 142.5t-34 136.5t-54 125.5t-71 109.5h66q36 -47 66.5 -104.5t53 -123t35 -138t12.5 -148.5z" />
    <glyph glyph-name="asterisk" unicode="*" horiz-adv-x="347" 
d="M198 677l110 37l17 -48l-110 -36l67 -93l-40 -30l-69 94l-67 -93l-42 29l67 92l-108 37l15 49l109 -38v110h51v-110z" />
    <glyph glyph-name="plus" unicode="+" horiz-adv-x="570" 
d="M253 0v222h-222v60h222v212h64v-212h221v-60h-221v-222h-64z" />
    <glyph glyph-name="comma" unicode="," horiz-adv-x="270" 
d="M70 51q0 27 17 46t48 19q32 0 48.5 -21.5t16.5 -53.5q0 -30 -12.5 -57t-32.5 -49.5t-45 -39.5t-49 -27l-3 7q12 7 25 19.5t23.5 27.5t17.5 32t7 32q-26 2 -43.5 20.5t-17.5 44.5z" />
    <glyph glyph-name="hyphen" unicode="-" horiz-adv-x="357" 
d="M50 294h257v-81h-257v81z" />
    <glyph glyph-name="period" unicode="." horiz-adv-x="270" 
d="M70 51q0 27 19 46t46 19t46 -19t19 -46t-19 -46t-46 -19t-46 19t-19 46z" />
    <glyph glyph-name="slash" unicode="/" horiz-adv-x="438" 
d="M-3 -66l384 901h60l-384 -901h-60z" />
    <glyph glyph-name="zero" unicode="0" horiz-adv-x="680" 
d="M519 360q0 98 -15.5 164.5t-41 107t-57.5 58t-65 17.5t-65 -17.5t-57.5 -58t-41 -107t-15.5 -164.5t15.5 -164t41 -105.5t57.5 -56t65 -16.5t65 16.5t57.5 56t41 105.5t15.5 164zM625 359q0 -90 -22 -159.5t-60 -117t-90.5 -72t-112.5 -24.5q-65 0 -117.5 25t-90 72.5
t-57.5 117.5t-20 160t22 160.5t60 118.5t90.5 73.5t114.5 25.5q69 0 121.5 -25.5t88.5 -74.5t54.5 -119.5t18.5 -160.5z" />
    <glyph glyph-name="one" unicode="1" horiz-adv-x="392" 
d="M188 0v644q-14 -2 -38.5 -1.5t-50.5 2.5t-48.5 4.5t-32.5 5.5v4q87 5 145.5 26.5t90.5 53.5h26v-739h-92z" />
    <glyph glyph-name="two" unicode="2" horiz-adv-x="626" 
d="M-5 6q46 40 95.5 83.5t97 88.5t90 91t74.5 92.5t51 92.5t19 90q0 68 -37 106.5t-103 38.5q-38 0 -70 -12t-55.5 -36.5t-36.5 -62t-12 -87.5h-13q-9 55 3 101t41.5 78.5t73.5 50.5t98 18q43 0 81.5 -12t68 -35t46.5 -58t17 -81q0 -63 -38 -126.5t-99.5 -124.5t-138 -117
t-153.5 -104h461v-81h-558z" />
    <glyph glyph-name="three" unicode="3" horiz-adv-x="562" 
d="M249 694q-26 0 -52 -8t-49 -23t-41.5 -37t-28.5 -49l-12 5q12 46 36.5 76.5t55.5 48.5t64.5 25t64.5 7q38 0 71 -9t58 -26t39 -41t14 -54q0 -32 -14 -59.5t-39 -50.5t-59 -42t-74 -33q58 -5 101 -23.5t71.5 -47t42.5 -64t14 -74.5q0 -47 -18.5 -88.5t-53.5 -72.5
t-84.5 -49.5t-110.5 -18.5q-39 0 -79.5 11t-72.5 30t-52.5 43.5t-20.5 51.5q0 20 12 31.5t35 11.5q21 0 33 -11t20.5 -27t16.5 -35.5t20.5 -35.5t33 -27t53.5 -11q38 0 68.5 13t51.5 36t32.5 54.5t11.5 68.5q0 42 -14 75t-38.5 55.5t-57.5 34.5t-70 12q-35 0 -66 -10v10
q49 17 88 43.5t66 57.5t41 63t14 60q0 46 -33.5 74.5t-88.5 28.5z" />
    <glyph glyph-name="four" unicode="4" horiz-adv-x="650" 
d="M385 0v222h-375l-3 7l443 510h27v-442h143v-75h-143v-222h-92zM385 297v309l-269 -309h269z" />
    <glyph glyph-name="five" unicode="5" horiz-adv-x="587" 
d="M264 18q36 0 67.5 12.5t54.5 36.5t36 60t13 83q0 48 -13 82.5t-35.5 57.5t-53.5 34t-68 11q-106 0 -175 -78l-9 2l76 401h354l-13 -89h-316l-42 -222q31 25 67 39t90 14q51 0 95 -17.5t76.5 -48t50.5 -72.5t18 -90q0 -57 -20.5 -103t-57 -78.5t-86.5 -49.5t-108 -17
q-39 0 -79.5 11t-72.5 29.5t-52.5 42.5t-20.5 50q0 22 13.5 34t30.5 12q22 0 34.5 -11t21.5 -27t17 -35.5t20.5 -35.5t33 -27t53.5 -11z" />
    <glyph glyph-name="six" unicode="6" horiz-adv-x="627" 
d="M507 733q-82 -30 -140.5 -67t-98 -82t-62.5 -99.5t-34 -120.5q9 21 24.5 42t39 38.5t53.5 28t68 10.5q35 0 75 -12t73.5 -40t56 -74.5t22.5 -116.5q0 -54 -21 -100t-56.5 -80.5t-83.5 -54t-102 -19.5q-64 0 -113.5 22.5t-83 62.5t-51 95t-17.5 120q0 96 37.5 173
t99.5 134t142.5 94.5t167.5 56.5zM330 437q-40 0 -72 -16t-54 -44t-33.5 -65.5t-11.5 -80.5q0 -45 11.5 -83.5t32 -67.5t49 -45.5t63.5 -16.5q37 0 67.5 15.5t52 44t33 69t11.5 89.5q0 45 -11 82t-30.5 63.5t-47 41t-60.5 14.5z" />
    <glyph glyph-name="seven" unicode="7" horiz-adv-x="560" 
d="M37 631v89h524l9 -9l-481 -819l-89 52l506 687h-469z" />
    <glyph glyph-name="eight" unicode="8" horiz-adv-x="639" 
d="M484 585q0 52 -41 86t-121 34q-71 0 -114.5 -29.5t-43.5 -83.5q0 -28 11 -49t32 -39t52 -35t70 -35l21 -10l46 -21q52 -24 88.5 -46.5t60 -47.5t34 -55t10.5 -69q0 -35 -17 -70.5t-50.5 -64t-84.5 -46.5t-119 -18q-60 0 -109 14t-84.5 39.5t-55 60t-19.5 76.5
q0 62 46.5 108t151.5 75q-31 15 -59.5 35t-50.5 45.5t-35 57.5t-13 71q0 33 15 63.5t44.5 54.5t73 38.5t100.5 14.5q55 0 97.5 -11t72 -30.5t45 -45.5t15.5 -55q0 -57 -47.5 -101t-155.5 -72q27 15 51 31t42.5 35.5t29.5 42.5t11 52zM124 174q0 -39 16.5 -68t43.5 -47.5
t62.5 -27.5t73.5 -9q39 0 73.5 8.5t60 25t40.5 41t15 55.5q0 23 -7 42.5t-24 38t-45.5 36.5t-71.5 38l-103 48q-6 2 -9 4q-58 -31 -91.5 -78t-33.5 -107z" />
    <glyph glyph-name="nine" unicode="9" horiz-adv-x="608" 
d="M117 -7q82 30 140.5 66.5t98 81.5t62.5 99.5t34 120.5q-9 -21 -24.5 -42t-39 -38.5t-54 -28t-67.5 -10.5q-35 0 -75 12t-74 40t-56 74.5t-22 116.5q0 54 21 100t56.5 80.5t83.5 54t102 19.5q64 0 113 -22.5t83 -62.5t51.5 -95t17.5 -120q0 -96 -37.5 -173t-99.5 -134
t-142.5 -94.5t-167.5 -56.5zM294 288q40 0 72 16t54 44t33.5 65.5t11.5 80.5q0 45 -11.5 83.5t-32 67.5t-49 45.5t-63.5 16.5q-38 0 -68 -15.5t-51.5 -44t-33 -69t-11.5 -89.5q0 -45 11 -82t30.5 -63.5t47 -41t60.5 -14.5z" />
    <glyph glyph-name="colon" unicode=":" horiz-adv-x="290" 
d="M80 439q0 27 19 46t46 19t46 -19t19 -46t-19 -46t-46 -19t-46 19t-19 46zM80 51q0 27 19 46t46 19t46 -19t19 -46t-19 -46t-46 -19t-46 19t-19 46z" />
    <glyph glyph-name="semicolon" unicode=";" horiz-adv-x="290" 
d="M80 51q0 27 17 46t48 19q32 0 48.5 -21.5t16.5 -53.5q0 -30 -12.5 -57t-32.5 -49.5t-45 -39.5t-49 -27l-3 7q12 7 25 19.5t23.5 27.5t17.5 32t7 32q-26 2 -43.5 20.5t-17.5 44.5zM77 438q0 27 19 46t46 19t46 -19t19 -46t-19 -46t-46 -19t-46 19t-19 46z" />
    <glyph glyph-name="equal" unicode="=" horiz-adv-x="522" 
d="M40 320v60h442v-60h-442zM40 130v61h442v-61h-442z" />
    <glyph glyph-name="question" unicode="?" horiz-adv-x="453" 
d="M187 185q-5 5 -16.5 15t-23.5 26.5t-21.5 41.5t-9.5 60q0 36 16 66t40 56.5t51.5 51t51.5 50.5t40 55t16 65q0 19 -7 36.5t-20.5 31t-32 21.5t-40.5 8q-48 0 -72 -15t-38.5 -33.5t-26.5 -33.5t-36 -15q-14 0 -26 12t-12 30q0 21 19 37t48.5 27t64.5 16.5t67 5.5
q38 0 76.5 -8.5t69 -26.5t49.5 -45t19 -63q0 -40 -19 -74t-48 -64.5t-62.5 -59.5t-62.5 -59.5t-48 -64.5t-19 -75q0 -26 8 -44t13 -24zM117 51q0 27 19 46t46 19t46 -19t19 -46t-19 -46t-46 -19t-46 19t-19 46z" />
    <glyph glyph-name="at" unicode="@" horiz-adv-x="928" 
d="M832 454q0 74 -25 129.5t-69.5 92.5t-104.5 55.5t-129 18.5q-96 0 -171.5 -29.5t-128 -80.5t-80 -119.5t-27.5 -147.5q0 -78 26.5 -141.5t75 -107.5t118.5 -68t157 -24q96 0 167 23.5t123 61.5l18 -47q-18 -14 -46 -29t-67 -28t-90 -21.5t-115 -8.5q-92 0 -169.5 28
t-134 79t-88.5 123.5t-32 162.5q0 89 33.5 166.5t94.5 134.5t146 90t187 33q81 0 152 -23t123 -67.5t82 -109t30 -146.5q0 -59 -17.5 -115.5t-49.5 -100.5t-77 -70.5t-101 -26.5q-41 0 -70 10.5t-47 26.5t-27 35t-9 36h-1q-8 -18 -21 -34.5t-30 -30t-37.5 -21.5t-44.5 -8
q-32 0 -59.5 13.5t-48 37.5t-32.5 56.5t-12 69.5q0 64 27 121t67.5 99.5t89 67t92.5 24.5q24 0 39.5 -9t25 -22.5t13.5 -30t5 -31.5h2l23 76h97l-83 -306q-17 -59 -9 -96t49 -37q48 0 83.5 24t59 62t35.5 85.5t12 94.5zM367 187q33 0 56.5 18t40.5 45t29 60t21 63
q4 14 10.5 37t11.5 49.5t7 54t-2.5 49.5t-16.5 36t-35 14q-33 0 -65.5 -31t-59 -79.5t-42.5 -107t-16 -112.5q0 -45 14.5 -70.5t46.5 -25.5z" />
    <glyph glyph-name="A" unicode="A" horiz-adv-x="750" 
d="M508 271h-320l-107 -271h-54l309 787h78l309 -787h-109zM215 339h266l-132 339z" />
    <glyph glyph-name="B" unicode="B" horiz-adv-x="741" 
d="M314 787q66 0 123 -9t100 -31t67.5 -59.5t24.5 -93.5q0 -38 -14.5 -68t-38.5 -51.5t-55 -35t-65 -19.5q41 -4 81.5 -18t72.5 -39t51.5 -61.5t19.5 -85.5q0 -66 -30 -108t-80 -66t-115.5 -33t-136.5 -9h-204v787h199zM297 45q57 0 106 4t84.5 20.5t55.5 50.5t20 93
q0 60 -20 95t-55.5 53t-84.5 23t-106 5h-79v-344h79zM218 742v-310h55q52 0 96 4.5t76 20.5t50 47t18 85t-18 84.5t-50 46t-76 19t-96 3.5h-55z" />
    <glyph glyph-name="C" unicode="C" horiz-adv-x="834" 
d="M469 800q46 0 90 -5.5t83 -15.5t72 -24t57 -32v-148h-10q-24 61 -57.5 98t-72 56.5t-80.5 25.5t-82 6q-57 0 -112 -20.5t-97.5 -65t-69 -114.5t-26.5 -168t26.5 -168t69 -114.5t97.5 -65t112 -20.5q40 0 82.5 6t81.5 26t73 56.5t58 98.5h10v-148q-65 -42 -144 -60
t-161 -18q-87 0 -163.5 28.5t-134 81.5t-91 128.5t-33.5 168.5t33.5 168.5t91 128.5t134 81.5t163.5 28.5z" />
    <glyph glyph-name="D" unicode="D" horiz-adv-x="838" 
d="M326 787q94 0 178 -26.5t148 -77t101.5 -124t37.5 -166.5t-37.5 -166.5t-102 -123.5t-149.5 -76.5t-181 -26.5h-206v787h211zM219 742v-697h126q57 0 115.5 16t106 56t77.5 107t30 169t-30 169.5t-77.5 107t-106 56t-115.5 16.5h-126z" />
    <glyph glyph-name="E" unicode="E" horiz-adv-x="664" 
d="M115 787h499v-48h-395v-310h346v-48h-346v-333h395v-48h-499v787z" />
    <glyph glyph-name="F" unicode="F" horiz-adv-x="614" 
d="M115 787h499v-48h-395v-310h346v-48h-346v-381h-104v787z" />
    <glyph glyph-name="G" unicode="G" horiz-adv-x="882" 
d="M469 -14q-87 0 -163.5 28.5t-134 81.5t-91 128.5t-33.5 168.5t33.5 168.5t91 128.5t134 81.5t163.5 28.5q46 0 90 -5.5t83 -15.5t72 -24t57 -32v-148h-10q-24 61 -57.5 98t-72 56.5t-80.5 25.5t-82 6q-57 0 -112 -20.5t-97.5 -65t-69 -114.5t-26.5 -168
q0 -105 28.5 -175.5t73.5 -113.5t101.5 -61t112.5 -18q37 0 72 5.5t64.5 15.5t53 22.5t38.5 27.5v234h-156v51h260v-276q-21 -24 -54.5 -46t-77 -38t-97 -25.5t-114.5 -9.5z" />
    <glyph glyph-name="H" unicode="H" horiz-adv-x="864" 
d="M645 379h-426v-379h-104v787h104v-357h426v357h104v-787h-104v379z" />
    <glyph glyph-name="I" unicode="I" horiz-adv-x="334" 
d="M115 787h104v-787h-104v787z" />
    <glyph glyph-name="J" unicode="J" horiz-adv-x="348" 
d="M238 787v-594q0 -59 -10.5 -100t-37 -73t-71 -60.5t-111.5 -62.5l-7 13q34 24 59 44.5t41.5 48.5t24.5 68t8 102v614h104z" />
    <glyph glyph-name="K" unicode="K" horiz-adv-x="747" 
d="M115 787h104v-394l439 394h62l-398 -357l430 -430h-142l-391 391v-391h-104v787z" />
    <glyph glyph-name="L" unicode="L" horiz-adv-x="634" 
d="M219 48h395v-48h-499v787h104v-739z" />
    <glyph glyph-name="M" unicode="M" horiz-adv-x="1018" 
d="M908 0h-106l-28 698l-246 -698h-68l-265 699l-31 -699h-54l34 787h125l250 -668l235 668h120z" />
    <glyph glyph-name="N" unicode="N" 
d="M746 787v-787h-56l-520 707v-707h-55v787h121l455 -618v618h55z" />
    <glyph glyph-name="O" unicode="O" horiz-adv-x="946" 
d="M473 761q-57 0 -112.5 -20.5t-99 -65t-70.5 -114.5t-27 -168t27 -168t70.5 -114.5t99 -65t112.5 -20.5t112.5 20.5t99 65t70.5 114.5t27 168t-27 168t-70.5 114.5t-99 65t-112.5 20.5zM473 800q87 0 164 -28.5t135.5 -81.5t92.5 -128.5t34 -168.5t-34 -168.5
t-92.5 -128.5t-135.5 -81.5t-164 -28.5t-164 28.5t-135.5 81.5t-92.5 128.5t-34 168.5t34 168.5t92.5 128.5t135.5 81.5t164 28.5z" />
    <glyph glyph-name="P" unicode="P" horiz-adv-x="685" 
d="M219 347v-347h-104v787h224q65 0 125.5 -11t107.5 -36.5t75 -67.5t28 -105t-28 -105t-75 -67.5t-107.5 -36.5t-125.5 -11h-120zM332 392q52 0 94 9t71 29.5t45 54t16 82.5t-16 82.5t-45 54t-71 29.5t-94 9h-113v-350h113z" />
    <glyph glyph-name="Q" unicode="Q" horiz-adv-x="946" 
d="M473 800q87 0 164 -28.5t135.5 -81.5t92.5 -128.5t34 -168.5q0 -65 -17 -121.5t-47.5 -103t-73 -82t-93.5 -59.5l143 -149l-38 -38l-160 166q-68 -20 -140 -20q-87 0 -164 28.5t-135.5 81.5t-92.5 128.5t-34 168.5t34 168.5t92.5 128.5t135.5 81.5t164 28.5zM473 761
q-57 0 -112.5 -20.5t-99 -65t-70.5 -114.5t-27 -168t27 -168t70.5 -114.5t99 -65t112.5 -20.5q26 0 52.5 4t52.5 14l-141 148l38 38l154 -162q33 20 61 49.5t48.5 70t32 92t11.5 114.5q0 98 -27 168t-70.5 114.5t-99 65t-112.5 20.5z" />
    <glyph glyph-name="R" unicode="R" horiz-adv-x="745" 
d="M597 0l-298 377h-80v-377h-104v787h184q65 0 125.5 -8.5t107.5 -31.5t75 -62.5t28 -102.5q0 -48 -16.5 -82t-45.5 -57.5t-68.5 -37t-84.5 -20.5l305 -385h-128zM292 422q52 0 94 6.5t71 24.5t45 49t16 80t-16 80t-45 49t-71 24.5t-94 6.5h-73v-320h73z" />
    <glyph glyph-name="S" unicode="S" horiz-adv-x="688" 
d="M286 377q-104 35 -148.5 91.5t-44.5 130.5q0 45 20 82t54.5 63.5t81.5 41t101 14.5q64 0 119.5 -12.5t98.5 -32.5v-169h-10q-27 88 -80.5 131.5t-126.5 43.5q-78 0 -122 -36t-44 -93q0 -25 6 -47t20 -41t38.5 -35.5t62.5 -29.5l76 -26q46 -16 89.5 -36t77 -47.5
t53.5 -65.5t20 -90q0 -50 -19.5 -92t-56 -72t-89.5 -47t-120 -17q-150 0 -250 62l-3 175h10q32 -102 90 -150t149 -48q49 0 85.5 12t61 32.5t37 48t12.5 59.5q0 61 -39.5 101.5t-133.5 72.5z" />
    <glyph glyph-name="T" unicode="T" horiz-adv-x="704" 
d="M404 0h-104v739h-280v48h664v-48h-280v-739z" />
    <glyph glyph-name="U" unicode="U" 
d="M214 787v-508q0 -61 17 -106.5t48.5 -75.5t75.5 -45t97 -15q124 0 189 60.5t65 192.5v497h55v-494q0 -83 -22.5 -141.5t-64 -95t-101 -53.5t-133.5 -17t-134.5 18.5t-104 55t-67.5 91.5t-24 128v508h104z" />
    <glyph glyph-name="V" unicode="V" horiz-adv-x="750" 
d="M669 787h54l-309 -787h-78l-309 787h109l265 -678z" />
    <glyph glyph-name="W" unicode="W" horiz-adv-x="1125" 
d="M1097 787l-253 -787h-78l-211 642l-195 -642h-79l-253 787h111l207 -655l201 655h70l217 -652l207 652h56z" />
    <glyph glyph-name="X" unicode="X" horiz-adv-x="811" 
d="M720 787l-274 -344l335 -443h-122l-276 365l-290 -365h-63l323 405l-288 382h122l228 -303l242 303h63z" />
    <glyph glyph-name="Y" unicode="Y" horiz-adv-x="699" 
d="M296 337l-276 450h113l245 -401l244 401h57l-279 -451v-336h-104v337z" />
    <glyph glyph-name="Z" unicode="Z" horiz-adv-x="684" 
d="M147 45h493v-45h-607v45l503 697h-444v45h558v-45z" />
    <glyph glyph-name="bracketleft" unicode="[" horiz-adv-x="274" 
d="M96 787h173v-48h-109v-933h109v-48h-173v1029z" />
    <glyph glyph-name="bracketright" unicode="]" horiz-adv-x="274" 
d="M178 -242h-173v48h109v933h-109v48h173v-1029z" />
    <glyph glyph-name="underscore" unicode="_" horiz-adv-x="441" 
d="M18 0h405v-65h-405v65z" />
    <glyph glyph-name="grave" unicode="`" horiz-adv-x="209" 
d="M25 787h110l86 -183h-13z" />
    <glyph glyph-name="a" unicode="a" horiz-adv-x="514" 
d="M331 235q-57 0 -94.5 -10.5t-59.5 -28t-30.5 -39t-8.5 -43.5q0 -40 24.5 -61.5t63.5 -21.5q25 0 53 11t51 36q-25 -42 -60 -67t-85 -25q-68 0 -110 36t-42 93q0 41 24 68.5t65 43.5t95 23t114 7l1 82q1 76 -24 107t-66 31q-50 0 -66 -21t-8 -58q5 -26 -8 -43t-36 -17
q-20 0 -34 13t-14 37q0 22 14 43.5t37.5 37.5t54.5 26t66 10q39 0 71.5 -9t56 -30.5t36 -58t12.5 -90.5l-2 -232q-1 -37 9 -49.5t29 -12.5q24 0 51 27l8 -8q-24 -32 -50 -42.5t-50 -10.5q-18 0 -34 5t-28.5 16.5t-19.5 30.5t-7 48z" />
    <glyph glyph-name="b" unicode="b" horiz-adv-x="628" 
d="M96 0v787h92v-365q10 13 24.5 27.5t33.5 26t42.5 19t52.5 7.5q55 0 100.5 -19.5t78 -54t50.5 -81.5t18 -103t-18 -103t-50.5 -81.5t-78 -54t-100.5 -19.5q-29 0 -52.5 7.5t-42.5 19t-33.5 25.5t-24.5 28v-66h-92zM298 457q-32 0 -58 -7.5t-52 -27.5v-356q26 -20 52 -27.5
t58 -7.5q42 0 76.5 14.5t59.5 42.5t38.5 67t13.5 89q0 49 -13.5 88.5t-38.5 67.5t-59.5 42.5t-76.5 14.5z" />
    <glyph glyph-name="c" unicode="c" horiz-adv-x="519" 
d="M298 472q-35 0 -64 -14t-50 -41t-32.5 -66t-9.5 -89q1 -48 13.5 -88.5t35.5 -70t56 -46t76 -16.5q22 0 45 5.5t44.5 19t41 36.5t33.5 59l11 -4q-41 -171 -209 -171q-53 0 -98.5 17.5t-79 50.5t-52.5 80.5t-19 107.5q0 64 23.5 112.5t62 81t86.5 49t97 16.5
q33 0 63.5 -6.5t54.5 -18.5t38.5 -29t14.5 -38q0 -18 -12 -31.5t-32 -13.5q-23 0 -34.5 8t-18 20t-10.5 26t-11.5 26t-22 20t-41.5 8z" />
    <glyph glyph-name="d" unicode="d" horiz-adv-x="628" 
d="M532 787v-787h-92v787h92zM40 244q0 56 18 103t50.5 81.5t78 54t100.5 19.5q28 0 52 -7.5t43 -19t33.5 -26t24.5 -27.5q-26 20 -52 27.5t-58 7.5q-42 0 -76.5 -14.5t-59.5 -42.5t-38.5 -67.5t-13.5 -88.5q0 -50 13.5 -89.5t38.5 -67t59.5 -42.5t76.5 -15q32 0 58 7.5
t52 27.5q-10 -14 -24.5 -28t-33.5 -25t-43 -18.5t-52 -7.5q-55 0 -100.5 19.5t-78 54t-50.5 81.5t-18 103z" />
    <glyph glyph-name="e" unicode="e" horiz-adv-x="547" 
d="M293 473q-34 0 -59.5 -12t-43 -31.5t-28.5 -44.5t-15 -51h258q-5 68 -31 103.5t-81 35.5zM142 299q-1 -8 -1 -16.5v-16.5q0 -49 12 -90t36 -71t59 -47t82 -17q26 0 52 6t49.5 20t42.5 37t31 57l12 -3q-43 -172 -219 -172q-57 0 -104.5 18t-81.5 51t-53 80t-19 106
q0 58 20.5 106t55 82.5t80.5 53.5t97 19q44 0 82 -14t67.5 -40t47.5 -63.5t21 -85.5h-369z" />
    <glyph glyph-name="f" unicode="f" horiz-adv-x="373" 
d="M25 491h99q1 142 51.5 221.5t148.5 79.5q36 0 60.5 -14t24.5 -40q0 -21 -12.5 -33t-31.5 -12t-31.5 7.5t-23.5 17t-23 17t-30 7.5t-33.5 -13.5t-23 -43.5t-5.5 -78t18 -116h164v-51h-161v-440h-92v440h-99v51z" />
    <glyph glyph-name="g" unicode="g" horiz-adv-x="585" 
d="M269 502q37 0 79 -11h244v-41l-169 5q29 -20 47.5 -50t18.5 -72q0 -39 -18.5 -70.5t-49.5 -53.5t-70.5 -33.5t-81.5 -11.5q-41 0 -77 10q-39 -9 -53 -26t-14 -31q0 -20 18.5 -32t69.5 -12h78q51 0 96.5 -4t80 -17t55 -38.5t20.5 -67.5q0 -50 -26 -88.5t-67.5 -64.5
t-93 -39t-101.5 -13q-49 0 -93 9t-77 26t-52.5 42.5t-19.5 57.5q0 24 12.5 41.5t35 29.5t54 20t68.5 12q-49 -17 -67.5 -39.5t-18.5 -51.5q0 -32 14 -53t37.5 -33.5t53 -18t61.5 -5.5q35 0 71 7t65.5 21.5t48 35.5t18.5 49q0 48 -37.5 68t-121.5 20h-114q-37 0 -62.5 9.5
t-41 23.5t-22.5 31.5t-7 32.5q0 41 35.5 65.5t95.5 32.5q-30 9 -55.5 23.5t-44.5 34.5t-30 45.5t-11 55.5q0 39 18.5 70.5t49.5 53.5t70 33.5t81 11.5zM384 333q0 138 -115 138q-113 0 -113 -138q0 -67 28.5 -102.5t84.5 -35.5t85.5 33t29.5 105z" />
    <glyph glyph-name="h" unicode="h" horiz-adv-x="614" 
d="M328 452q-21 0 -42.5 -6t-40.5 -19.5t-33.5 -34t-23.5 -48.5v-344h-92v787h92v-443q6 34 20 63t36.5 50t52.5 33t66 12q46 0 78.5 -14.5t52.5 -40.5t29 -61.5t9 -77.5v-308h-92v306q0 76 -30 111t-82 35z" />
    <glyph glyph-name="i" unicode="i" horiz-adv-x="284" 
d="M83 715q0 25 16.5 42t41.5 17t42 -17t17 -42t-17 -41.5t-42 -16.5t-41.5 16.5t-16.5 41.5zM188 0h-92v491h92v-491z" />
    <glyph glyph-name="j" unicode="j" horiz-adv-x="284" 
d="M83 715q0 25 16.5 42t41.5 17t42 -17t17 -42t-17 -41.5t-42 -16.5t-41.5 16.5t-16.5 41.5zM96 491h92v-446q0 -59 -9 -100t-33 -73t-67 -60.5t-110 -62.5l-7 13q34 24 59.5 44.5t42 48.5t24.5 68t8 102v466z" />
    <glyph glyph-name="k" unicode="k" horiz-adv-x="549" 
d="M520 491l-238 -212l267 -279h-117l-242 252l274 239h56zM188 0h-92v787h92v-787z" />
    <glyph glyph-name="l" unicode="l" horiz-adv-x="284" 
d="M188 0h-92v787h92v-787z" />
    <glyph glyph-name="m" unicode="m" horiz-adv-x="941" 
d="M324 452q-43 0 -81 -25.5t-55 -82.5v-344h-92v491h92v-147q6 34 19.5 63t35 50t51 33t65.5 12q41 0 70 -11.5t48.5 -32.5t30.5 -50t14 -63q6 34 19.5 63t35.5 50t51.5 32.5t65.5 11.5q46 0 78 -14.5t51 -40.5t27.5 -61.5t8.5 -77.5v-308h-92v306q0 76 -28 111t-80 35
q-43 0 -81.5 -25.5t-55.5 -82.5q1 -9 1.5 -18t0.5 -18v-308h-92v306q0 76 -28 111t-80 35z" />
    <glyph glyph-name="n" unicode="n" horiz-adv-x="614" 
d="M328 447q-21 0 -42.5 -5.5t-40.5 -17.5t-33.5 -32t-23.5 -48v-344h-92v491h92v-147q6 34 20 63t36.5 50t52.5 33t66 12q46 0 78.5 -14.5t52.5 -40t29 -61.5t9 -78v-308h-92v306q0 76 -30 108.5t-82 32.5z" />
    <glyph glyph-name="o" unicode="o" horiz-adv-x="610" 
d="M570 244q0 -56 -21.5 -103t-57.5 -81.5t-84 -54t-102 -19.5t-102 19.5t-84 54t-57.5 81.5t-21.5 103q0 55 21.5 102.5t57.5 82t84 54t102 19.5t102 -19.5t84 -54t57.5 -82t21.5 -102.5zM465 244q0 36 -7.5 76t-25.5 73.5t-49 55t-78 21.5t-77.5 -21.5t-49 -54.5t-26 -73
t-7.5 -77q0 -36 7.5 -76t25.5 -73.5t49 -55t78 -21.5t78 22t49 55.5t25.5 73t7.5 75.5z" />
    <glyph glyph-name="p" unicode="p" horiz-adv-x="628" 
d="M96 -242v733h92v-69q10 13 24.5 27.5t33.5 26t42.5 19t52.5 7.5q55 0 100.5 -19.5t78 -54t50.5 -81.5t18 -103t-18 -103t-50.5 -81.5t-78 -54t-100.5 -19.5q-29 0 -52.5 7.5t-42.5 19t-33.5 25.5t-24.5 28v-308h-92zM298 457q-32 0 -58 -7.5t-52 -27.5v-356
q26 -20 52 -27.5t58 -7.5q42 0 76.5 14.5t59.5 42.5t38.5 67t13.5 89q0 49 -13.5 88.5t-38.5 67.5t-59.5 42.5t-76.5 14.5z" />
    <glyph glyph-name="q" unicode="q" horiz-adv-x="628" 
d="M440 -242v733h92v-733h-92zM40 244q0 56 18 103t50.5 81.5t78 54t100.5 19.5q28 0 52 -7.5t43 -19t33.5 -26t24.5 -27.5q-26 20 -52 27.5t-58 7.5q-42 0 -76.5 -14.5t-59.5 -42.5t-38.5 -67.5t-13.5 -88.5q0 -50 13.5 -89t38.5 -67t59.5 -42.5t76.5 -14.5q32 0 58 7.5
t52 27.5q-10 -14 -24.5 -28t-33.5 -25.5t-43 -19t-52 -7.5q-55 0 -100.5 19.5t-78 54t-50.5 81.5t-18 103z" />
    <glyph glyph-name="r" unicode="r" horiz-adv-x="397" 
d="M372 413q-12 2 -29.5 3.5t-37.5 1.5q-18 0 -36 -2.5t-34 -8.5t-28.5 -17.5t-18.5 -29.5v-360h-92v491h92v-131q11 63 58 102.5t126 39.5v-89v0z" />
    <glyph glyph-name="s" unicode="s" horiz-adv-x="481" 
d="M233 -14q-33 0 -65.5 7t-59 20.5t-42.5 33t-16 43.5q0 20 13 33t36 13q15 0 24 -5t14.5 -13t8 -18t5.5 -21q3 -12 8 -22.5t14.5 -18.5t25 -13t39.5 -5q23 0 44.5 5.5t38 17t26.5 28t10 38.5q0 39 -31.5 61t-80.5 36l-53 15q-69 20 -101.5 56t-32.5 87q0 29 13.5 55
t37.5 45t58.5 30t76.5 11q34 0 64 -6t52.5 -16.5t35.5 -26t13 -34.5q0 -20 -11.5 -34t-34.5 -14q-19 0 -28.5 7.5t-15 18t-10 23.5t-13 23.5t-24.5 18t-44 7.5q-42 0 -72 -21.5t-30 -57.5q0 -31 23.5 -52t74.5 -35l53 -15q72 -20 112.5 -53.5t40.5 -96.5q0 -38 -17 -67
t-44.5 -48.5t-63 -29.5t-72.5 -10z" />
    <glyph glyph-name="t" unicode="t" horiz-adv-x="406" 
d="M15 491h99v108l91 54v-162h186v-51h-186v-309q0 -30 6.5 -49.5t17 -31t24.5 -15.5t30 -4q33 0 57 16t41 46l12 -5q-22 -47 -56.5 -74.5t-91.5 -27.5q-27 0 -51 5.5t-42 20t-28 40.5t-10 67v321h-99v51z" />
    <glyph glyph-name="u" unicode="u" horiz-adv-x="603" 
d="M415 491h92v-491h-92v491zM415 137q-12 -68 -57.5 -109.5t-109.5 -41.5q-166 0 -166 208v297h92v-309q0 -76 29 -111t81 -35q42 0 76.5 22.5t54.5 78.5z" />
    <glyph glyph-name="v" unicode="v" horiz-adv-x="503" 
d="M113 491l164 -393l170 393h46l-212 -491h-59l-212 491h103z" />
    <glyph glyph-name="w" unicode="w" horiz-adv-x="743" 
d="M426 491l132 -367l130 367h45l-177 -491h-50l-135 368l-134 -368h-50l-177 491h101l128 -367l135 367h52z" />
    <glyph glyph-name="x" unicode="x" horiz-adv-x="530" 
d="M25 0l195 236l-191 255h107l140 -187l154 187h53l-182 -220l204 -271h-107l-153 203l-167 -203h-53z" />
    <glyph glyph-name="y" unicode="y" horiz-adv-x="508" 
d="M113 491l162 -390l172 390h51l-327 -733h-54l110 239l-217 494h103z" />
    <glyph glyph-name="z" unicode="z" horiz-adv-x="513" 
d="M148 41h320v-41h-423v41l311 409h-275v41h379v-41z" />
    <glyph glyph-name="braceleft" unicode="{" horiz-adv-x="268" 
d="M177 403q0 -33 -4 -55.5t-12.5 -37.5t-21 -23.5t-30.5 -13.5v-2q18 -5 30.5 -13.5t21 -23.5t12.5 -37.5t4 -55.5v-248q0 -26 2 -43t9.5 -26.5t22 -13.5t40.5 -4h12v-48h-40q-37 0 -59 8t-33 23.5t-14.5 38.5t-3.5 53v269q0 18 -2.5 35.5t-10 31t-22 22t-38.5 8.5v50
q24 0 38.5 8.5t22 22t10 31t2.5 35.5v270q0 30 3.5 53t14.5 38.5t33 23.5t59 8h40v-48h-12q-26 0 -40.5 -4t-22 -13.5t-9.5 -26.5t-2 -43v-249z" />
    <glyph glyph-name="bar" unicode="|" horiz-adv-x="220" 
d="M77 -32v819h66v-819h-66z" />
    <glyph glyph-name="braceright" unicode="}" horiz-adv-x="268" 
d="M91 652q0 26 -2 43t-9.5 26.5t-22.5 13.5t-40 4h-12v48h40q37 0 59 -8t33 -23.5t14.5 -38.5t3.5 -53v-269q0 -18 2.5 -35.5t10 -31t22 -22t38.5 -8.5v-50q-24 0 -38.5 -8.5t-22 -22t-10 -31t-2.5 -35.5v-270q0 -30 -3.5 -53t-14.5 -38.5t-33 -23.5t-59 -8h-40v48h12
q25 0 40 4t22.5 13.5t9.5 26.5t2 43v249q0 33 4 55.5t12.5 37.5t21 23.5t30.5 13.5v2q-18 5 -30.5 13.5t-21 23.5t-12.5 37.5t-4 55.5v248z" />
    <glyph glyph-name="uni00A0" unicode="&#xa0;" horiz-adv-x="230" 
 />
    <glyph glyph-name="exclamdown" unicode="&#xa1;" horiz-adv-x="311" 
d="M217 -261q-31 -11 -60 -11q-30 0 -61 11q8 80 15.5 148t15 134t14 134t11.5 147h10q5 -80 11.5 -148t13.5 -133.5t14.5 -134t15.5 -147.5zM90 437q0 27 19 46t46 19t46 -19t19 -46t-19 -46t-46 -19t-46 19t-19 46z" />
    <glyph glyph-name="sterling" unicode="&#xa3;" horiz-adv-x="630" 
d="M31 392h147q-21 43 -41.5 86t-20.5 83q0 47 24.5 80.5t64 55.5t89 32t99.5 10q31 0 68 -6t68 -18t52 -29.5t21 -39.5q0 -18 -12 -31.5t-32 -13.5t-32.5 8t-22 20t-18.5 26t-22.5 26t-34.5 20t-53 8q-33 0 -62 -9t-50 -25.5t-33.5 -39.5t-12.5 -50q0 -24 8.5 -47.5
t20.5 -47t25.5 -48t23.5 -50.5h222v-41h-209q5 -25 5 -45q0 -39 -14 -77.5t-36.5 -73t-51.5 -62t-58 -44.5l2 -3q50 31 92 52t89 21q35 0 62.5 -9.5t50.5 -21.5t43.5 -21.5t41.5 -9.5q23 0 42 11t36 31l8 -6q-27 -52 -61.5 -79.5t-78.5 -27.5q-25 0 -48.5 7.5t-50 16t-57 16
t-70.5 7.5t-63 -7t-44.5 -15t-49 -14.5t-76.5 -5.5v35q39 0 74 19t62 52.5t42.5 79.5t15.5 100q0 17 -5 35.5t-13 38.5h-166v41z" />
    <glyph glyph-name="yen" unicode="&#xa5;" horiz-adv-x="662" 
d="M98 305h172l-240 415h106l220 -394l224 394h52l-238 -415h158v-42h-174v-78h174v-42h-174v-143h-92v143h-188v42h188v78h-188v42z" />
    <glyph glyph-name="dieresis" unicode="&#xa8;" horiz-adv-x="436" 
d="M59 691q0 25 16.5 42t41.5 17t42 -17t17 -42t-17 -41.5t-42 -16.5t-41.5 16.5t-16.5 41.5zM271 691q0 25 16.5 42t41.5 17t42 -17t17 -42t-17 -41.5t-42 -16.5t-41.5 16.5t-16.5 41.5z" />
    <glyph glyph-name="copyright" unicode="&#xa9;" horiz-adv-x="761" 
d="M37 331q0 76 27 139.5t73.5 109t109 70.5t134.5 25q71 0 133.5 -25t109 -70.5t73.5 -109t27 -139.5q0 -77 -27 -140t-73.5 -108t-109 -70t-133.5 -25q-72 0 -134.5 25t-109 70t-73.5 108t-27 140zM96 331q0 -65 22 -118.5t60.5 -92t90.5 -59.5t112 -21q61 0 113 21
t90 59.5t59.5 92t21.5 118.5t-21.5 118.5t-59.5 92t-90 59.5t-113 21q-60 0 -112 -21t-90.5 -59.5t-60.5 -92t-22 -118.5zM378 196q33 0 63 17t41 55l57 -16q-8 -22 -21 -41.5t-33 -34.5t-46.5 -23.5t-60.5 -8.5q-81 0 -125.5 50.5t-44.5 140.5q0 89 47.5 138.5t126.5 49.5
q65 0 103 -32.5t51 -80.5l-56 -18q-9 38 -38 58t-64 20q-22 0 -41.5 -8.5t-34.5 -25t-24 -42t-9 -59.5t9 -60t24 -43.5t34.5 -26.5t41.5 -9z" />
    <glyph glyph-name="guillemotleft" unicode="&#xab;" horiz-adv-x="432" 
d="M168 241v8l212 206h12l-130 -210l130 -211h-11zM11 241v8l212 206h12l-130 -210l130 -211h-11z" />
    <glyph glyph-name="uni00AD" unicode="&#xad;" horiz-adv-x="357" 
d="M50 294h257v-81h-257v81z" />
    <glyph glyph-name="macron" unicode="&#xaf;" horiz-adv-x="434" 
d="M50 716h334v-47h-334v47z" />
    <glyph glyph-name="degree" unicode="&#xb0;" horiz-adv-x="307" 
d="M17 659q0 29 10.5 54t29 43.5t43.5 29t53 10.5t53 -10.5t44 -29t29.5 -43.5t10.5 -54t-10.5 -53.5t-29.5 -43t-44 -29t-53 -10.5t-53 10.5t-43.5 29t-29 43t-10.5 53.5zM79 659q0 -34 20 -58t54 -24q35 0 55.5 24t20.5 58q0 35 -20.5 59t-55.5 24q-34 0 -54 -24t-20 -59z
" />
    <glyph glyph-name="acute" unicode="&#xb4;" horiz-adv-x="209" 
d="M38 604h-13l86 183h110z" />
    <glyph glyph-name="periodcentered" unicode="&#xb7;" horiz-adv-x="270" 
d="M70 257q0 27 19 46t46 19t46 -19t19 -46t-19 -46t-46 -19t-46 19t-19 46z" />
    <glyph glyph-name="cedilla" unicode="&#xb8;" horiz-adv-x="280" 
d="M146 -4l-53 -94q12 9 26 14.5t31 5.5q35 0 57.5 -17t22.5 -54q0 -28 -18 -50t-44.5 -37t-57.5 -22.5t-58 -6.5l-3 6q33 3 57 15t40.5 28t24.5 33t8 31q0 23 -11.5 35t-38.5 12q-12 0 -22.5 -4t-18.5 -10l-24 19l52 96h30z" />
    <glyph glyph-name="guillemotright" unicode="&#xbb;" horiz-adv-x="432" 
d="M51 34h-11l130 211l-130 210h12l212 -206v-8zM209 34h-11l130 211l-130 210h12l212 -206v-8z" />
    <glyph glyph-name="questiondown" unicode="&#xbf;" horiz-adv-x="453" 
d="M224 -252q-38 0 -76.5 8.5t-69 26.5t-49.5 45t-19 63q0 40 19 69.5t48 53.5t62.5 45t62.5 45t48 53.5t19 70.5q0 26 -5.5 46t-10.5 26l3 3q4 -5 16 -14.5t24 -25t21.5 -37.5t9.5 -52q0 -40 -16 -68t-40 -49t-51.5 -38.5t-51.5 -37.5t-40 -45t-16 -60q0 -19 7 -36.5
t20.5 -31t31.5 -21.5t41 -8q48 0 72 15t37.5 32.5t24 32.5t31.5 15q17 0 31.5 -11.5t14.5 -33.5q0 -19 -19 -34t-48.5 -25.5t-64.5 -16t-67 -5.5zM186 437q0 27 19 46t46 19t46 -19t19 -46t-19 -46t-46 -19t-46 19t-19 46z" />
    <glyph glyph-name="Agrave" unicode="&#xc0;" horiz-adv-x="750" 
d="M508 271h-320l-107 -271h-54l309 787h78l309 -787h-109zM215 339h266l-132 339zM207 990h110l86 -166h-13z" />
    <glyph glyph-name="Aacute" unicode="&#xc1;" horiz-adv-x="750" 
d="M508 271h-320l-107 -271h-54l309 787h78l309 -787h-109zM215 339h266l-132 339zM359 824h-13l86 166h110z" />
    <glyph glyph-name="Acircumflex" unicode="&#xc2;" horiz-adv-x="750" 
d="M508 271h-320l-107 -271h-54l309 787h78l309 -787h-109zM215 339h266l-132 339zM212 824l163 166h9l154 -166h-11l-148 79l-156 -79h-11z" />
    <glyph glyph-name="Atilde" unicode="&#xc3;" horiz-adv-x="750" 
d="M508 271h-320l-107 -271h-54l309 787h78l309 -787h-109zM215 339h266l-132 339zM546 991l7 -4l-47 -117h-258l-45 -47l-7 4l47 117h258z" />
    <glyph glyph-name="Adieresis" unicode="&#xc4;" horiz-adv-x="750" 
d="M508 271h-320l-107 -271h-54l309 787h78l309 -787h-109zM215 339h266l-132 339zM201 911q0 25 16.5 42t41.5 17t42 -17t17 -42t-17 -41.5t-42 -16.5t-41.5 16.5t-16.5 41.5zM433 911q0 25 16.5 42t41.5 17t42 -17t17 -42t-17 -41.5t-42 -16.5t-41.5 16.5t-16.5 41.5z" />
    <glyph glyph-name="Aring" unicode="&#xc5;" horiz-adv-x="750" 
d="M508 271h-320l-107 -271h-54l309 787h78l309 -787h-109zM215 339h266l-132 339zM476 913q0 -21 -8 -38.5t-22 -31t-32.5 -21t-39.5 -7.5t-39.5 7.5t-32.5 21t-22 31t-8 38.5t8 38.5t22 31t32.5 21t39.5 7.5t39.5 -7.5t32.5 -21t22 -31t8 -38.5zM438 913q0 29 -19 47
t-45 18q-28 0 -45.5 -19t-17.5 -46t17.5 -46t45.5 -19q30 0 47 19t17 46z" />
    <glyph glyph-name="AE" unicode="&#xc6;" horiz-adv-x="1016" 
d="M966 787v-48h-395v-310h346v-48h-346v-333h395v-48h-499v223h-279l-131 -223h-57l467 787h499zM228 291h239v405z" />
    <glyph glyph-name="Ccedilla" unicode="&#xc7;" horiz-adv-x="834" 
d="M469 800q46 0 90 -5.5t83 -15.5t72 -24t57 -32v-148h-10q-24 61 -57.5 98t-72 56.5t-80.5 25.5t-82 6q-57 0 -112 -20.5t-97.5 -65t-69 -114.5t-26.5 -168t26.5 -168t69 -114.5t97.5 -65t112 -20.5q40 0 82.5 6t81.5 26t73 56.5t58 98.5h10v-148q-65 -42 -144 -60
t-161 -18q-87 0 -163.5 28.5t-134 81.5t-91 128.5t-33.5 168.5t33.5 168.5t91 128.5t134 81.5t163.5 28.5zM466 -4l-53 -94q12 9 26 14.5t31 5.5q35 0 57.5 -17t22.5 -54q0 -28 -18 -50t-44.5 -37t-57.5 -22.5t-58 -6.5l-3 6q33 3 57 15t40.5 28t24.5 33t8 31q0 23 -11.5 35
t-38.5 12q-12 0 -22.5 -4t-18.5 -10l-24 19l52 96h30z" />
    <glyph glyph-name="Egrave" unicode="&#xc8;" horiz-adv-x="664" 
d="M115 787h499v-48h-395v-310h346v-48h-346v-333h395v-48h-499v787zM234 990h110l86 -166h-13z" />
    <glyph glyph-name="Eacute" unicode="&#xc9;" horiz-adv-x="664" 
d="M115 787h499v-48h-395v-310h346v-48h-346v-333h395v-48h-499v787zM327 824h-13l86 166h110z" />
    <glyph glyph-name="Ecircumflex" unicode="&#xca;" horiz-adv-x="664" 
d="M115 787h499v-48h-395v-310h346v-48h-346v-333h395v-48h-499v787zM219 824l163 166h9l154 -166h-11l-148 79l-156 -79h-11z" />
    <glyph glyph-name="Edieresis" unicode="&#xcb;" horiz-adv-x="664" 
d="M115 787h499v-48h-395v-310h346v-48h-346v-333h395v-48h-499v787zM208 911q0 25 16.5 42t41.5 17t42 -17t17 -42t-17 -41.5t-42 -16.5t-41.5 16.5t-16.5 41.5zM440 911q0 25 16.5 42t41.5 17t42 -17t17 -42t-17 -41.5t-42 -16.5t-41.5 16.5t-16.5 41.5z" />
    <glyph glyph-name="Igrave" unicode="&#xcc;" horiz-adv-x="334" 
d="M115 787h104v-787h-104v787zM69 990h110l86 -166h-13z" />
    <glyph glyph-name="Iacute" unicode="&#xcd;" horiz-adv-x="334" 
d="M115 787h104v-787h-104v787zM122 824h-13l86 166h110z" />
    <glyph glyph-name="Icircumflex" unicode="&#xce;" horiz-adv-x="334" 
d="M115 787h104v-787h-104v787zM5 824l163 166h9l154 -166h-11l-148 79l-156 -79h-11z" />
    <glyph glyph-name="Idieresis" unicode="&#xcf;" horiz-adv-x="334" 
d="M115 787h104v-787h-104v787zM-6 911q0 25 16.5 42t41.5 17t42 -17t17 -42t-17 -41.5t-42 -16.5t-41.5 16.5t-16.5 41.5zM226 911q0 25 16.5 42t41.5 17t42 -17t17 -42t-17 -41.5t-42 -16.5t-41.5 16.5t-16.5 41.5z" />
    <glyph glyph-name="Eth" unicode="&#xd0;" horiz-adv-x="860" 
d="M348 787q94 0 178 -26.5t148 -77t101.5 -124t37.5 -166.5t-37.5 -166.5t-102 -123.5t-149.5 -76.5t-181 -26.5h-206v379h-127v51h127v357h211zM241 742v-312h173v-51h-173v-334h126q57 0 115.5 16t106 56t77.5 107t30 169t-30 169.5t-77.5 107t-106 56t-115.5 16.5h-126z
" />
    <glyph glyph-name="Ntilde" unicode="&#xd1;" 
d="M746 787v-787h-56l-520 707v-707h-55v787h121l455 -618v618h55zM642 991l7 -4l-47 -117h-258l-45 -47l-7 4l47 117h258z" />
    <glyph glyph-name="Ograve" unicode="&#xd2;" horiz-adv-x="946" 
d="M473 761q-57 0 -112.5 -20.5t-99 -65t-70.5 -114.5t-27 -168t27 -168t70.5 -114.5t99 -65t112.5 -20.5t112.5 20.5t99 65t70.5 114.5t27 168t-27 168t-70.5 114.5t-99 65t-112.5 20.5zM473 800q87 0 164 -28.5t135.5 -81.5t92.5 -128.5t34 -168.5t-34 -168.5
t-92.5 -128.5t-135.5 -81.5t-164 -28.5t-164 28.5t-135.5 81.5t-92.5 128.5t-34 168.5t34 168.5t92.5 128.5t135.5 81.5t164 28.5zM375 990h110l86 -166h-13z" />
    <glyph glyph-name="Oacute" unicode="&#xd3;" horiz-adv-x="946" 
d="M473 761q-57 0 -112.5 -20.5t-99 -65t-70.5 -114.5t-27 -168t27 -168t70.5 -114.5t99 -65t112.5 -20.5t112.5 20.5t99 65t70.5 114.5t27 168t-27 168t-70.5 114.5t-99 65t-112.5 20.5zM473 800q87 0 164 -28.5t135.5 -81.5t92.5 -128.5t34 -168.5t-34 -168.5
t-92.5 -128.5t-135.5 -81.5t-164 -28.5t-164 28.5t-135.5 81.5t-92.5 128.5t-34 168.5t34 168.5t92.5 128.5t135.5 81.5t164 28.5zM408 824h-13l86 166h110z" />
    <glyph glyph-name="Ocircumflex" unicode="&#xd4;" horiz-adv-x="946" 
d="M473 761q-57 0 -112.5 -20.5t-99 -65t-70.5 -114.5t-27 -168t27 -168t70.5 -114.5t99 -65t112.5 -20.5t112.5 20.5t99 65t70.5 114.5t27 168t-27 168t-70.5 114.5t-99 65t-112.5 20.5zM473 800q87 0 164 -28.5t135.5 -81.5t92.5 -128.5t34 -168.5t-34 -168.5
t-92.5 -128.5t-135.5 -81.5t-164 -28.5t-164 28.5t-135.5 81.5t-92.5 128.5t-34 168.5t34 168.5t92.5 128.5t135.5 81.5t164 28.5zM310 824l163 166h9l154 -166h-11l-148 79l-156 -79h-11z" />
    <glyph glyph-name="Otilde" unicode="&#xd5;" horiz-adv-x="946" 
d="M473 761q-57 0 -112.5 -20.5t-99 -65t-70.5 -114.5t-27 -168t27 -168t70.5 -114.5t99 -65t112.5 -20.5t112.5 20.5t99 65t70.5 114.5t27 168t-27 168t-70.5 114.5t-99 65t-112.5 20.5zM473 800q87 0 164 -28.5t135.5 -81.5t92.5 -128.5t34 -168.5t-34 -168.5
t-92.5 -128.5t-135.5 -81.5t-164 -28.5t-164 28.5t-135.5 81.5t-92.5 128.5t-34 168.5t34 168.5t92.5 128.5t135.5 81.5t164 28.5zM644 991l7 -4l-47 -117h-258l-45 -47l-7 4l47 117h258z" />
    <glyph glyph-name="Odieresis" unicode="&#xd6;" horiz-adv-x="946" 
d="M473 761q-57 0 -112.5 -20.5t-99 -65t-70.5 -114.5t-27 -168t27 -168t70.5 -114.5t99 -65t112.5 -20.5t112.5 20.5t99 65t70.5 114.5t27 168t-27 168t-70.5 114.5t-99 65t-112.5 20.5zM473 800q87 0 164 -28.5t135.5 -81.5t92.5 -128.5t34 -168.5t-34 -168.5
t-92.5 -128.5t-135.5 -81.5t-164 -28.5t-164 28.5t-135.5 81.5t-92.5 128.5t-34 168.5t34 168.5t92.5 128.5t135.5 81.5t164 28.5zM299 911q0 25 16.5 42t41.5 17t42 -17t17 -42t-17 -41.5t-42 -16.5t-41.5 16.5t-16.5 41.5zM531 911q0 25 16.5 42t41.5 17t42 -17t17 -42
t-17 -41.5t-42 -16.5t-41.5 16.5t-16.5 41.5z" />
    <glyph glyph-name="multiply" unicode="&#xd7;" horiz-adv-x="510" 
d="M425 35l-171 170l-169 -169l-45 45l169 170l-169 169l45 45l169 -169l170 169l45 -45l-169 -169l170 -171z" />
    <glyph glyph-name="Oslash" unicode="&#xd8;" horiz-adv-x="966" 
d="M483 800q75 0 140.5 -21t119.5 -61l107 114l33 -30l-106 -113q56 -54 87.5 -128t31.5 -168q0 -93 -32 -168.5t-88 -128.5t-131 -81.5t-162 -28.5q-81 0 -151 24.5t-125 69.5l-91 -97l-31 30l91 97q-50 53 -78 124t-28 159q0 93 32 168.5t88 128.5t131 81.5t162 28.5z
M483 25q57 0 111 19t95.5 62.5t67 114t25.5 172.5q0 78 -15.5 137.5t-41.5 102.5l-470 -501q43 -57 103 -82t125 -25zM483 761q-57 0 -111 -19.5t-95.5 -63t-67 -113.5t-25.5 -172q0 -72 12.5 -126.5t34.5 -96.5l467 499q-43 49 -99 70.5t-116 21.5z" />
    <glyph glyph-name="Ugrave" unicode="&#xd9;" 
d="M214 787v-508q0 -61 17 -106.5t48.5 -75.5t75.5 -45t97 -15q124 0 189 60.5t65 192.5v497h55v-494q0 -83 -22.5 -141.5t-64 -95t-101 -53.5t-133.5 -17t-134.5 18.5t-104 55t-67.5 91.5t-24 128v508h104zM322 990h110l86 -166h-13z" />
    <glyph glyph-name="Uacute" unicode="&#xda;" 
d="M214 787v-508q0 -61 17 -106.5t48.5 -75.5t75.5 -45t97 -15q124 0 189 60.5t65 192.5v497h55v-494q0 -83 -22.5 -141.5t-64 -95t-101 -53.5t-133.5 -17t-134.5 18.5t-104 55t-67.5 91.5t-24 128v508h104zM425 824h-13l86 166h110z" />
    <glyph glyph-name="Ucircumflex" unicode="&#xdb;" 
d="M214 787v-508q0 -61 17 -106.5t48.5 -75.5t75.5 -45t97 -15q124 0 189 60.5t65 192.5v497h55v-494q0 -83 -22.5 -141.5t-64 -95t-101 -53.5t-133.5 -17t-134.5 18.5t-104 55t-67.5 91.5t-24 128v508h104zM299 824l163 166h9l154 -166h-11l-148 79l-156 -79h-11z" />
    <glyph glyph-name="Udieresis" unicode="&#xdc;" 
d="M214 787v-508q0 -61 17 -106.5t48.5 -75.5t75.5 -45t97 -15q124 0 189 60.5t65 192.5v497h55v-494q0 -83 -22.5 -141.5t-64 -95t-101 -53.5t-133.5 -17t-134.5 18.5t-104 55t-67.5 91.5t-24 128v508h104zM283 911q0 25 16.5 42t41.5 17t42 -17t17 -42t-17 -41.5
t-42 -16.5t-41.5 16.5t-16.5 41.5zM515 911q0 25 16.5 42t41.5 17t42 -17t17 -42t-17 -41.5t-42 -16.5t-41.5 16.5t-16.5 41.5z" />
    <glyph glyph-name="Yacute" unicode="&#xdd;" horiz-adv-x="729" 
d="M296 337l-276 450h113l245 -401l244 401h57l-279 -451v-336h-104v337zM362 824h-13l86 166h110z" />
    <glyph glyph-name="Thorn" unicode="&#xde;" horiz-adv-x="665" 
d="M219 197v-197h-104v787h104v-170h100q65 0 125.5 -9.5t107.5 -33t75 -64t28 -103.5t-28 -103.5t-75 -64t-107.5 -33t-125.5 -9.5h-100zM312 242q52 0 94 7.5t71 26t45 50.5t16 81t-16 81t-45 50.5t-71 26t-94 7.5h-93v-330h93z" />
    <glyph glyph-name="germandbls" unicode="&#xdf;" horiz-adv-x="643" 
d="M426 -14q-91 0 -138.5 27t-47.5 64q0 19 12.5 33t35.5 14q26 0 37 -16.5t21.5 -36.5t27.5 -36.5t55 -16.5q47 0 75.5 25.5t28.5 67.5q0 33 -19 58.5t-68 55.5l-57 35q-54 34 -88 76.5t-34 97.5q0 23 7 40.5t18.5 31t26 24t28.5 19.5q36 23 51 49t15 70q0 19 -6 37
t-18.5 32t-31.5 22.5t-44 8.5q-24 0 -46.5 -9.5t-40 -34t-28 -66.5t-10.5 -106v-552h-92v532q0 62 15.5 112t45 84.5t71 53t94.5 18.5q33 0 65 -8t57 -23.5t40.5 -39.5t15.5 -55q0 -27 -11 -48.5t-27.5 -38.5t-36.5 -29.5t-39 -22.5q-24 -13 -41.5 -27t-17.5 -37
q0 -18 11 -34.5t27.5 -31.5t37 -29t40.5 -26l41 -26q29 -18 53 -36.5t41 -39t26 -44t9 -52.5q0 -37 -16.5 -67.5t-43 -52.5t-60 -34t-67.5 -12z" />
    <glyph glyph-name="agrave" unicode="&#xe0;" horiz-adv-x="514" 
d="M331 235q-57 0 -94.5 -10.5t-59.5 -28t-30.5 -39t-8.5 -43.5q0 -40 24.5 -61.5t63.5 -21.5q25 0 53 11t51 36q-25 -42 -60 -67t-85 -25q-68 0 -110 36t-42 93q0 41 24 68.5t65 43.5t95 23t114 7l1 82q1 76 -24 107t-66 31q-50 0 -66 -21t-8 -58q5 -26 -8 -43t-36 -17
q-20 0 -34 13t-14 37q0 22 14 43.5t37.5 37.5t54.5 26t66 10q39 0 71.5 -9t56 -30.5t36 -58t12.5 -90.5l-2 -232q-1 -37 9 -49.5t29 -12.5q24 0 51 27l8 -8q-24 -32 -50 -42.5t-50 -10.5q-18 0 -34 5t-28.5 16.5t-19.5 30.5t-7 48zM109 787h110l86 -183h-13z" />
    <glyph glyph-name="aacute" unicode="&#xe1;" horiz-adv-x="514" 
d="M331 235q-57 0 -94.5 -10.5t-59.5 -28t-30.5 -39t-8.5 -43.5q0 -40 24.5 -61.5t63.5 -21.5q25 0 53 11t51 36q-25 -42 -60 -67t-85 -25q-68 0 -110 36t-42 93q0 41 24 68.5t65 43.5t95 23t114 7l1 82q1 76 -24 107t-66 31q-50 0 -66 -21t-8 -58q5 -26 -8 -43t-36 -17
q-20 0 -34 13t-14 37q0 22 14 43.5t37.5 37.5t54.5 26t66 10q39 0 71.5 -9t56 -30.5t36 -58t12.5 -90.5l-2 -232q-1 -37 9 -49.5t29 -12.5q24 0 51 27l8 -8q-24 -32 -50 -42.5t-50 -10.5q-18 0 -34 5t-28.5 16.5t-19.5 30.5t-7 48zM242 604h-13l86 183h110z" />
    <glyph glyph-name="acircumflex" unicode="&#xe2;" horiz-adv-x="514" 
d="M331 235q-57 0 -94.5 -10.5t-59.5 -28t-30.5 -39t-8.5 -43.5q0 -40 24.5 -61.5t63.5 -21.5q25 0 53 11t51 36q-25 -42 -60 -67t-85 -25q-68 0 -110 36t-42 93q0 41 24 68.5t65 43.5t95 23t114 7l1 82q1 76 -24 107t-66 31q-50 0 -66 -21t-8 -58q5 -26 -8 -43t-36 -17
q-20 0 -34 13t-14 37q0 22 14 43.5t37.5 37.5t54.5 26t66 10q39 0 71.5 -9t56 -30.5t36 -58t12.5 -90.5l-2 -232q-1 -37 9 -49.5t29 -12.5q24 0 51 27l8 -8q-24 -32 -50 -42.5t-50 -10.5q-18 0 -34 5t-28.5 16.5t-19.5 30.5t-7 48zM104 604l163 186h9l154 -186h-11l-148 99
l-156 -99h-11z" />
    <glyph glyph-name="atilde" unicode="&#xe3;" horiz-adv-x="514" 
d="M331 235q-57 0 -94.5 -10.5t-59.5 -28t-30.5 -39t-8.5 -43.5q0 -40 24.5 -61.5t63.5 -21.5q25 0 53 11t51 36q-25 -42 -60 -67t-85 -25q-68 0 -110 36t-42 93q0 41 24 68.5t65 43.5t95 23t114 7l1 82q1 76 -24 107t-66 31q-50 0 -66 -21t-8 -58q5 -26 -8 -43t-36 -17
q-20 0 -34 13t-14 37q0 22 14 43.5t37.5 37.5t54.5 26t66 10q39 0 71.5 -9t56 -30.5t36 -58t12.5 -90.5l-2 -232q-1 -37 9 -49.5t29 -12.5q24 0 51 27l8 -8q-24 -32 -50 -42.5t-50 -10.5q-18 0 -34 5t-28.5 16.5t-19.5 30.5t-7 48zM439 775l7 -4l-47 -117h-258l-45 -47l-7 4
l47 117h258z" />
    <glyph glyph-name="adieresis" unicode="&#xe4;" horiz-adv-x="514" 
d="M331 235q-57 0 -94.5 -10.5t-59.5 -28t-30.5 -39t-8.5 -43.5q0 -40 24.5 -61.5t63.5 -21.5q25 0 53 11t51 36q-25 -42 -60 -67t-85 -25q-68 0 -110 36t-42 93q0 41 24 68.5t65 43.5t95 23t114 7l1 82q1 76 -24 107t-66 31q-50 0 -66 -21t-8 -58q5 -26 -8 -43t-36 -17
q-20 0 -34 13t-14 37q0 22 14 43.5t37.5 37.5t54.5 26t66 10q39 0 71.5 -9t56 -30.5t36 -58t12.5 -90.5l-2 -232q-1 -37 9 -49.5t29 -12.5q24 0 51 27l8 -8q-24 -32 -50 -42.5t-50 -10.5q-18 0 -34 5t-28.5 16.5t-19.5 30.5t-7 48zM103 691q0 25 16.5 42t41.5 17t42 -17
t17 -42t-17 -41.5t-42 -16.5t-41.5 16.5t-16.5 41.5zM315 691q0 25 16.5 42t41.5 17t42 -17t17 -42t-17 -41.5t-42 -16.5t-41.5 16.5t-16.5 41.5z" />
    <glyph glyph-name="aring" unicode="&#xe5;" horiz-adv-x="514" 
d="M331 235q-57 0 -94.5 -10.5t-59.5 -28t-30.5 -39t-8.5 -43.5q0 -40 24.5 -61.5t63.5 -21.5q25 0 53 11t51 36q-25 -42 -60 -67t-85 -25q-68 0 -110 36t-42 93q0 41 24 68.5t65 43.5t95 23t114 7l1 82q1 76 -24 107t-66 31q-50 0 -66 -21t-8 -58q5 -26 -8 -43t-36 -17
q-20 0 -34 13t-14 37q0 22 14 43.5t37.5 37.5t54.5 26t66 10q39 0 71.5 -9t56 -30.5t36 -58t12.5 -90.5l-2 -232q-1 -37 9 -49.5t29 -12.5q24 0 51 27l8 -8q-24 -32 -50 -42.5t-50 -10.5q-18 0 -34 5t-28.5 16.5t-19.5 30.5t-7 48zM369 683q0 -21 -8 -38.5t-22 -31
t-32.5 -21t-39.5 -7.5t-39.5 7.5t-32.5 21t-22 31t-8 38.5t8 38.5t22 31t32.5 21t39.5 7.5t39.5 -7.5t32.5 -21t22 -31t8 -38.5zM331 683q0 29 -19 47t-45 18q-28 0 -45.5 -19t-17.5 -46t17.5 -46t45.5 -19q30 0 47 19t17 46z" />
    <glyph glyph-name="ae" unicode="&#xe6;" horiz-adv-x="830" 
d="M33 115q0 41 24 68.5t65 43.5t95 23t114 7l1 82q1 76 -24 107t-66 31q-50 0 -66 -21t-8 -58q5 -26 -8 -43t-36 -17q-20 0 -34 13t-14 37q0 22 14 43.5t37.5 37.5t54.5 26t66 10q52 0 92 -16t62 -58q33 34 77.5 52.5t96.5 18.5q44 0 82 -14t67.5 -40t47.5 -63.5t21 -85.5
h-369q-1 -8 -1.5 -14.5t-0.5 -13.5v-12q1 -47 13.5 -87t36.5 -69t59 -45.5t80 -16.5q24 0 49.5 5.5t49.5 19t44.5 37t32.5 58.5l12 -3q-12 -49 -34 -82t-50.5 -53t-63 -28.5t-71.5 -8.5q-56 0 -101.5 17.5t-78 50t-51 78.5t-19.5 103q-57 0 -94.5 -10.5t-59.5 -28t-30.5 -39
t-8.5 -43.5q0 -40 24.5 -61.5t63.5 -21.5q12 0 29.5 4t35.5 13.5t35.5 25.5t31.5 41q-21 -71 -63.5 -100t-102.5 -29q-73 0 -116 36t-43 93zM576 473q-34 0 -59.5 -12t-43 -31.5t-28.5 -44.5t-15 -51h258q-5 68 -31 103.5t-81 35.5z" />
    <glyph glyph-name="ccedilla" unicode="&#xe7;" horiz-adv-x="519" 
d="M298 472q-35 0 -64 -14t-50 -41t-32.5 -66t-9.5 -89q1 -48 13.5 -88.5t35.5 -70t56 -46t76 -16.5q22 0 45 5.5t44.5 19t41 36.5t33.5 59l11 -4q-41 -171 -209 -171q-53 0 -98.5 17.5t-79 50.5t-52.5 80.5t-19 107.5q0 64 23.5 112.5t62 81t86.5 49t97 16.5
q33 0 63.5 -6.5t54.5 -18.5t38.5 -29t14.5 -38q0 -18 -12 -31.5t-32 -13.5q-23 0 -34.5 8t-18 20t-10.5 26t-11.5 26t-22 20t-41.5 8zM278 -4l-53 -94q12 9 26 14.5t31 5.5q35 0 57.5 -17t22.5 -54q0 -28 -18 -50t-44.5 -37t-57.5 -22.5t-58 -6.5l-3 6q33 3 57 15t40.5 28
t24.5 33t8 31q0 23 -11.5 35t-38.5 12q-12 0 -22.5 -4t-18.5 -10l-24 19l52 96h30z" />
    <glyph glyph-name="egrave" unicode="&#xe8;" horiz-adv-x="547" 
d="M293 473q-34 0 -59.5 -12t-43 -31.5t-28.5 -44.5t-15 -51h258q-5 68 -31 103.5t-81 35.5zM142 299q-1 -8 -1 -16.5v-16.5q0 -49 12 -90t36 -71t59 -47t82 -17q26 0 52 6t49.5 20t42.5 37t31 57l12 -3q-43 -172 -219 -172q-57 0 -104.5 18t-81.5 51t-53 80t-19 106
q0 58 20.5 106t55 82.5t80.5 53.5t97 19q44 0 82 -14t67.5 -40t47.5 -63.5t21 -85.5h-369zM165 787h110l86 -183h-13z" />
    <glyph glyph-name="eacute" unicode="&#xe9;" horiz-adv-x="547" 
d="M293 473q-34 0 -59.5 -12t-43 -31.5t-28.5 -44.5t-15 -51h258q-5 68 -31 103.5t-81 35.5zM142 299q-1 -8 -1 -16.5v-16.5q0 -49 12 -90t36 -71t59 -47t82 -17q26 0 52 6t49.5 20t42.5 37t31 57l12 -3q-43 -172 -219 -172q-57 0 -104.5 18t-81.5 51t-53 80t-19 106
q0 58 20.5 106t55 82.5t80.5 53.5t97 19q44 0 82 -14t67.5 -40t47.5 -63.5t21 -85.5h-369zM248 604h-13l86 183h110z" />
    <glyph glyph-name="ecircumflex" unicode="&#xea;" horiz-adv-x="547" 
d="M293 473q-34 0 -59.5 -12t-43 -31.5t-28.5 -44.5t-15 -51h258q-5 68 -31 103.5t-81 35.5zM142 299q-1 -8 -1 -16.5v-16.5q0 -49 12 -90t36 -71t59 -47t82 -17q26 0 52 6t49.5 20t42.5 37t31 57l12 -3q-43 -172 -219 -172q-57 0 -104.5 18t-81.5 51t-53 80t-19 106
q0 58 20.5 106t55 82.5t80.5 53.5t97 19q44 0 82 -14t67.5 -40t47.5 -63.5t21 -85.5h-369zM138 604l163 186h9l154 -186h-11l-148 99l-156 -99h-11z" />
    <glyph glyph-name="edieresis" unicode="&#xeb;" horiz-adv-x="547" 
d="M293 473q-34 0 -59.5 -12t-43 -31.5t-28.5 -44.5t-15 -51h258q-5 68 -31 103.5t-81 35.5zM142 299q-1 -8 -1 -16.5v-16.5q0 -49 12 -90t36 -71t59 -47t82 -17q26 0 52 6t49.5 20t42.5 37t31 57l12 -3q-43 -172 -219 -172q-57 0 -104.5 18t-81.5 51t-53 80t-19 106
q0 58 20.5 106t55 82.5t80.5 53.5t97 19q44 0 82 -14t67.5 -40t47.5 -63.5t21 -85.5h-369zM139 691q0 25 16.5 42t41.5 17t42 -17t17 -42t-17 -41.5t-42 -16.5t-41.5 16.5t-16.5 41.5zM351 691q0 25 16.5 42t41.5 17t42 -17t17 -42t-17 -41.5t-42 -16.5t-41.5 16.5
t-16.5 41.5z" />
    <glyph glyph-name="igrave" unicode="&#xec;" horiz-adv-x="284" 
d="M188 0h-92v491h92v-491zM19 787h110l86 -183h-13z" />
    <glyph glyph-name="iacute" unicode="&#xed;" horiz-adv-x="284" 
d="M188 0h-92v491h92v-491zM95 604h-13l86 183h110z" />
    <glyph glyph-name="icircumflex" unicode="&#xee;" horiz-adv-x="284" 
d="M188 0h-92v491h92v-491zM-20 604l163 186h9l154 -186h-11l-148 99l-156 -99h-11z" />
    <glyph glyph-name="idieresis" unicode="&#xef;" horiz-adv-x="284" 
d="M188 0h-92v491h92v-491zM-21 691q0 25 16.5 42t41.5 17t42 -17t17 -42t-17 -41.5t-42 -16.5t-41.5 16.5t-16.5 41.5zM191 691q0 25 16.5 42t41.5 17t42 -17t17 -42t-17 -41.5t-42 -16.5t-41.5 16.5t-16.5 41.5z" />
    <glyph glyph-name="eth" unicode="&#xf0;" horiz-adv-x="617" 
d="M425 767l-98 -49q53 -32 98 -73t77.5 -92.5t51 -112.5t18.5 -133q0 -70 -17.5 -129t-51.5 -101.5t-84.5 -66.5t-115.5 -24q-60 0 -108 20.5t-81.5 55.5t-51 83t-17.5 104q0 65 19.5 113t52 79.5t73 46.5t82.5 15q37 0 68.5 -11t56 -28.5t41.5 -40t26 -44.5
q-36 39 -75 57.5t-77 18.5q-33 0 -62.5 -14t-51.5 -40.5t-35 -65.5t-13 -90q0 -106 43.5 -165.5t113.5 -59.5q38 0 69 19.5t52.5 55.5t33 86t11.5 112q0 51 -10.5 105.5t-33.5 107t-58.5 101.5t-86.5 90l-129 -64l-17 34l111 55q-28 18 -59.5 34t-67.5 29l4 12
q84 -20 160 -57l122 61z" />
    <glyph glyph-name="ntilde" unicode="&#xf1;" horiz-adv-x="614" 
d="M328 447q-21 0 -42.5 -5.5t-40.5 -17.5t-33.5 -32t-23.5 -48v-344h-92v491h92v-147q6 34 20 63t36.5 50t52.5 33t66 12q46 0 78.5 -14.5t52.5 -40t29 -61.5t9 -78v-308h-92v306q0 76 -30 108.5t-82 32.5zM503 775l7 -4l-47 -117h-258l-45 -47l-7 4l47 117h258z" />
    <glyph glyph-name="ograve" unicode="&#xf2;" horiz-adv-x="610" 
d="M570 244q0 -56 -21.5 -103t-57.5 -81.5t-84 -54t-102 -19.5t-102 19.5t-84 54t-57.5 81.5t-21.5 103q0 55 21.5 102.5t57.5 82t84 54t102 19.5t102 -19.5t84 -54t57.5 -82t21.5 -102.5zM465 244q0 36 -7.5 76t-25.5 73.5t-49 55t-78 21.5t-77.5 -21.5t-49 -54.5t-26 -73
t-7.5 -77q0 -36 7.5 -76t25.5 -73.5t49 -55t78 -21.5t78 22t49 55.5t25.5 73t7.5 75.5zM192 787h110l86 -183h-13z" />
    <glyph glyph-name="oacute" unicode="&#xf3;" horiz-adv-x="610" 
d="M570 244q0 -56 -21.5 -103t-57.5 -81.5t-84 -54t-102 -19.5t-102 19.5t-84 54t-57.5 81.5t-21.5 103q0 55 21.5 102.5t57.5 82t84 54t102 19.5t102 -19.5t84 -54t57.5 -82t21.5 -102.5zM465 244q0 36 -7.5 76t-25.5 73.5t-49 55t-78 21.5t-77.5 -21.5t-49 -54.5t-26 -73
t-7.5 -77q0 -36 7.5 -76t25.5 -73.5t49 -55t78 -21.5t78 22t49 55.5t25.5 73t7.5 75.5zM285 604h-13l86 183h110z" />
    <glyph glyph-name="ocircumflex" unicode="&#xf4;" horiz-adv-x="610" 
d="M570 244q0 -56 -21.5 -103t-57.5 -81.5t-84 -54t-102 -19.5t-102 19.5t-84 54t-57.5 81.5t-21.5 103q0 55 21.5 102.5t57.5 82t84 54t102 19.5t102 -19.5t84 -54t57.5 -82t21.5 -102.5zM465 244q0 36 -7.5 76t-25.5 73.5t-49 55t-78 21.5t-77.5 -21.5t-49 -54.5t-26 -73
t-7.5 -77q0 -36 7.5 -76t25.5 -73.5t49 -55t78 -21.5t78 22t49 55.5t25.5 73t7.5 75.5zM139 604l163 186h9l154 -186h-11l-148 99l-156 -99h-11z" />
    <glyph glyph-name="otilde" unicode="&#xf5;" horiz-adv-x="610" 
d="M570 244q0 -56 -21.5 -103t-57.5 -81.5t-84 -54t-102 -19.5t-102 19.5t-84 54t-57.5 81.5t-21.5 103q0 55 21.5 102.5t57.5 82t84 54t102 19.5t102 -19.5t84 -54t57.5 -82t21.5 -102.5zM465 244q0 36 -7.5 76t-25.5 73.5t-49 55t-78 21.5t-77.5 -21.5t-49 -54.5t-26 -73
t-7.5 -77q0 -36 7.5 -76t25.5 -73.5t49 -55t78 -21.5t78 22t49 55.5t25.5 73t7.5 75.5zM484 775l7 -4l-47 -117h-258l-45 -47l-7 4l47 117h258z" />
    <glyph glyph-name="odieresis" unicode="&#xf6;" horiz-adv-x="610" 
d="M570 244q0 -56 -21.5 -103t-57.5 -81.5t-84 -54t-102 -19.5t-102 19.5t-84 54t-57.5 81.5t-21.5 103q0 55 21.5 102.5t57.5 82t84 54t102 19.5t102 -19.5t84 -54t57.5 -82t21.5 -102.5zM465 244q0 36 -7.5 76t-25.5 73.5t-49 55t-78 21.5t-77.5 -21.5t-49 -54.5t-26 -73
t-7.5 -77q0 -36 7.5 -76t25.5 -73.5t49 -55t78 -21.5t78 22t49 55.5t25.5 73t7.5 75.5zM140 691q0 25 16.5 42t41.5 17t42 -17t17 -42t-17 -41.5t-42 -16.5t-41.5 16.5t-16.5 41.5zM352 691q0 25 16.5 42t41.5 17t42 -17t17 -42t-17 -41.5t-42 -16.5t-41.5 16.5t-16.5 41.5z
" />
    <glyph glyph-name="divide" unicode="&#xf7;" horiz-adv-x="528" 
d="M220 148h87v-92h-87v92zM220 444h87v-92h-87v92zM28 220v60h472v-60h-472z" />
    <glyph glyph-name="oslash" unicode="&#xf8;" horiz-adv-x="610" 
d="M570 244q0 -56 -21.5 -103t-57.5 -81.5t-84 -54t-102 -19.5q-48 0 -90.5 15t-77.5 42l-74 -79l-23 22l73 78q-34 35 -53.5 80.5t-19.5 99.5q0 55 21.5 102.5t57.5 82t84 54t102 19.5q47 0 89 -15t77 -42l74 79l24 -22l-74 -78q35 -35 55 -80.5t20 -99.5zM465 244
q0 30 -5 62.5t-17 62.5l-263 -280q19 -31 49 -51t76 -20q47 0 78 22t49 55.5t25.5 73t7.5 75.5zM145 244q0 -30 5 -62.5t16 -61.5l262 280q-18 31 -48 50.5t-75 19.5q-47 0 -77.5 -21.5t-49 -54.5t-26 -73t-7.5 -77z" />
    <glyph glyph-name="ugrave" unicode="&#xf9;" horiz-adv-x="603" 
d="M415 491h92v-491h-92v491zM415 137q-12 -68 -57.5 -109.5t-109.5 -41.5q-166 0 -166 208v297h92v-309q0 -76 29 -111t81 -35q42 0 76.5 22.5t54.5 78.5zM183 787h110l86 -183h-13z" />
    <glyph glyph-name="uacute" unicode="&#xfa;" horiz-adv-x="603" 
d="M415 491h92v-491h-92v491zM415 137q-12 -68 -57.5 -109.5t-109.5 -41.5q-166 0 -166 208v297h92v-309q0 -76 29 -111t81 -35q42 0 76.5 22.5t54.5 78.5zM276 604h-13l86 183h110z" />
    <glyph glyph-name="ucircumflex" unicode="&#xfb;" horiz-adv-x="603" 
d="M415 491h92v-491h-92v491zM415 137q-12 -68 -57.5 -109.5t-109.5 -41.5q-166 0 -166 208v297h92v-309q0 -76 29 -111t81 -35q42 0 76.5 22.5t54.5 78.5zM140 604l163 186h9l154 -186h-11l-148 99l-156 -99h-11z" />
    <glyph glyph-name="udieresis" unicode="&#xfc;" horiz-adv-x="603" 
d="M415 491h92v-491h-92v491zM415 137q-12 -68 -57.5 -109.5t-109.5 -41.5q-166 0 -166 208v297h92v-309q0 -76 29 -111t81 -35q42 0 76.5 22.5t54.5 78.5zM144 691q0 25 16.5 42t41.5 17t42 -17t17 -42t-17 -41.5t-42 -16.5t-41.5 16.5t-16.5 41.5zM356 691q0 25 16.5 42
t41.5 17t42 -17t17 -42t-17 -41.5t-42 -16.5t-41.5 16.5t-16.5 41.5z" />
    <glyph glyph-name="yacute" unicode="&#xfd;" horiz-adv-x="508" 
d="M104 491l162 -390l172 390h51l-327 -733h-54l110 239l-217 494h103zM252 604h-13l86 183h110z" />
    <glyph glyph-name="thorn" unicode="&#xfe;" horiz-adv-x="628" 
d="M96 -242v1029h92v-365q10 13 24.5 27.5t33.5 26t42.5 19t52.5 7.5q55 0 100.5 -19.5t78 -54t50.5 -81.5t18 -103t-18 -103t-50.5 -81.5t-78 -54t-100.5 -19.5q-29 0 -52.5 7.5t-42.5 19t-33.5 25.5t-24.5 28v-308h-92zM298 457q-32 0 -58 -7.5t-52 -27.5v-356
q26 -20 52 -27.5t58 -7.5q42 0 76.5 14.5t59.5 42.5t38.5 67t13.5 89q0 49 -13.5 88.5t-38.5 67.5t-59.5 42.5t-76.5 14.5z" />
    <glyph glyph-name="ydieresis" unicode="&#xff;" horiz-adv-x="508" 
d="M104 491l162 -390l172 390h51l-327 -733h-54l110 239l-217 494h103zM113 691q0 25 16.5 42t41.5 17t42 -17t17 -42t-17 -41.5t-42 -16.5t-41.5 16.5t-16.5 41.5zM325 691q0 25 16.5 42t41.5 17t42 -17t17 -42t-17 -41.5t-42 -16.5t-41.5 16.5t-16.5 41.5z" />
    <glyph glyph-name="Abreve" unicode="&#x102;" horiz-adv-x="750" 
d="M508 271h-320l-107 -271h-54l309 787h78l309 -787h-109zM215 339h266l-132 339zM540 984q-6 -53 -26 -84.5t-45.5 -48t-51 -22t-43.5 -5.5q-19 0 -45 5.5t-50.5 22t-43.5 48t-25 84.5h45q11 -62 42.5 -91t79.5 -29q47 0 78 29t42 91h43z" />
    <glyph glyph-name="Amacron" unicode="&#x100;" horiz-adv-x="750" 
d="M508 271h-320l-107 -271h-54l309 787h78l309 -787h-109zM215 339h266l-132 339zM208 935h334v-47h-334v47z" />
    <glyph glyph-name="Aogonek" unicode="&#x104;" horiz-adv-x="750" 
d="M508 271h-320l-107 -271h-54l309 787h78l309 -787h-109zM215 339h266l-132 339zM624 -243q-19 0 -36 4.5t-30.5 15t-21.5 26t-8 38.5q0 24 11.5 45.5t31 41.5t45 37.5t53.5 34.5h10q-35 -33 -56.5 -71t-21.5 -70q0 -38 24.5 -54.5t53.5 -16.5q19 0 36 6l3 -8
q-19 -12 -43.5 -20.5t-50.5 -8.5z" />
    <glyph glyph-name="Cacute" unicode="&#x106;" horiz-adv-x="834" 
d="M469 800q46 0 90 -5.5t83 -15.5t72 -24t57 -32v-148h-10q-24 61 -57.5 98t-72 56.5t-80.5 25.5t-82 6q-57 0 -112 -20.5t-97.5 -65t-69 -114.5t-26.5 -168t26.5 -168t69 -114.5t97.5 -65t112 -20.5q40 0 82.5 6t81.5 26t73 56.5t58 98.5h10v-148q-65 -42 -144 -60
t-161 -18q-87 0 -163.5 28.5t-134 81.5t-91 128.5t-33.5 168.5t33.5 168.5t91 128.5t134 81.5t163.5 28.5zM432 824h-13l86 166h110z" />
    <glyph glyph-name="Ccaron" unicode="&#x10c;" horiz-adv-x="834" 
d="M469 800q46 0 90 -5.5t83 -15.5t72 -24t57 -32v-148h-10q-24 61 -57.5 98t-72 56.5t-80.5 25.5t-82 6q-57 0 -112 -20.5t-97.5 -65t-69 -114.5t-26.5 -168t26.5 -168t69 -114.5t97.5 -65t112 -20.5q40 0 82.5 6t81.5 26t73 56.5t58 98.5h10v-148q-65 -42 -144 -60
t-161 -18q-87 0 -163.5 28.5t-134 81.5t-91 128.5t-33.5 168.5t33.5 168.5t91 128.5t134 81.5t163.5 28.5zM625 990h11l-163 -166h-9l-154 166h11l148 -79z" />
    <glyph glyph-name="Ccircumflex" unicode="&#x108;" horiz-adv-x="834" 
d="M469 800q46 0 90 -5.5t83 -15.5t72 -24t57 -32v-148h-10q-24 61 -57.5 98t-72 56.5t-80.5 25.5t-82 6q-57 0 -112 -20.5t-97.5 -65t-69 -114.5t-26.5 -168t26.5 -168t69 -114.5t97.5 -65t112 -20.5q40 0 82.5 6t81.5 26t73 56.5t58 98.5h10v-148q-65 -42 -144 -60
t-161 -18q-87 0 -163.5 28.5t-134 81.5t-91 128.5t-33.5 168.5t33.5 168.5t91 128.5t134 81.5t163.5 28.5zM314 824l163 166h9l154 -166h-11l-148 79l-156 -79h-11z" />
    <glyph glyph-name="Cdotaccent" unicode="&#x10a;" horiz-adv-x="834" 
d="M469 800q46 0 90 -5.5t83 -15.5t72 -24t57 -32v-148h-10q-24 61 -57.5 98t-72 56.5t-80.5 25.5t-82 6q-57 0 -112 -20.5t-97.5 -65t-69 -114.5t-26.5 -168t26.5 -168t69 -114.5t97.5 -65t112 -20.5q40 0 82.5 6t81.5 26t73 56.5t58 98.5h10v-148q-65 -42 -144 -60
t-161 -18q-87 0 -163.5 28.5t-134 81.5t-91 128.5t-33.5 168.5t33.5 168.5t91 128.5t134 81.5t163.5 28.5zM409 911q0 25 16.5 42t41.5 17t42 -17t17 -42t-17 -41.5t-42 -16.5t-41.5 16.5t-16.5 41.5z" />
    <glyph glyph-name="Dcaron" unicode="&#x10e;" horiz-adv-x="848" 
d="M326 787q94 0 178 -26.5t148 -77t101.5 -124t37.5 -166.5t-37.5 -166.5t-102 -123.5t-149.5 -76.5t-181 -26.5h-206v787h211zM219 742v-697h126q57 0 115.5 16t106 56t77.5 107t30 169t-30 169.5t-77.5 107t-106 56t-115.5 16.5h-126zM545 990h11l-163 -166h-9l-154 166
h11l148 -79z" />
    <glyph glyph-name="Dcroat" unicode="&#x110;" horiz-adv-x="870" 
d="M348 787q94 0 178 -26.5t148 -77t101.5 -124t37.5 -166.5t-37.5 -166.5t-102 -123.5t-149.5 -76.5t-181 -26.5h-206v379h-127v51h127v357h211zM241 742v-312h173v-51h-173v-334h126q57 0 115.5 16t106 56t77.5 107t30 169t-30 169.5t-77.5 107t-106 56t-115.5 16.5h-126z
" />
    <glyph glyph-name="Ebreve" unicode="&#x114;" horiz-adv-x="664" 
d="M115 787h499v-48h-395v-310h346v-48h-346v-333h395v-48h-499v787zM547 984q-6 -53 -26 -84.5t-45.5 -48t-51 -22t-43.5 -5.5q-19 0 -45 5.5t-50.5 22t-43.5 48t-25 84.5h45q11 -62 42.5 -91t79.5 -29q47 0 78 29t42 91h43z" />
    <glyph glyph-name="Ecaron" unicode="&#x11a;" horiz-adv-x="664" 
d="M115 787h499v-48h-395v-310h346v-48h-346v-333h395v-48h-499v787zM534 990h11l-163 -166h-9l-154 166h11l148 -79z" />
    <glyph glyph-name="Emacron" unicode="&#x112;" horiz-adv-x="664" 
d="M115 787h499v-48h-395v-310h346v-48h-346v-333h395v-48h-499v787zM208 935h334v-47h-334v47z" />
    <glyph glyph-name="Eogonek" unicode="&#x118;" horiz-adv-x="664" 
d="M115 787h499v-48h-395v-310h346v-48h-346v-333h395v-48h-39q-35 -33 -56.5 -71t-21.5 -70q0 -38 24.5 -54.5t53.5 -16.5q19 0 36 6l3 -8q-19 -12 -43.5 -20.5t-50.5 -8.5q-19 0 -36 4.5t-30.5 15t-21.5 26t-8 38.5q0 24 11.5 45.5t31 41.5t45 37.5t53.5 34.5h-450v787z
" />
    <glyph glyph-name="Edotaccent" unicode="&#x116;" horiz-adv-x="664" 
d="M115 787h499v-48h-395v-310h346v-48h-346v-333h395v-48h-499v787zM324 911q0 25 16.5 42t41.5 17t42 -17t17 -42t-17 -41.5t-42 -16.5t-41.5 16.5t-16.5 41.5z" />
    <glyph glyph-name="Gbreve" unicode="&#x11e;" horiz-adv-x="882" 
d="M469 -14q-87 0 -163.5 28.5t-134 81.5t-91 128.5t-33.5 168.5t33.5 168.5t91 128.5t134 81.5t163.5 28.5q46 0 90 -5.5t83 -15.5t72 -24t57 -32v-148h-10q-24 61 -57.5 98t-72 56.5t-80.5 25.5t-82 6q-57 0 -112 -20.5t-97.5 -65t-69 -114.5t-26.5 -168
q0 -105 28.5 -175.5t73.5 -113.5t101.5 -61t112.5 -18q37 0 72 5.5t64.5 15.5t53 22.5t38.5 27.5v234h-156v51h260v-276q-21 -24 -54.5 -46t-77 -38t-97 -25.5t-114.5 -9.5zM641 984q-6 -53 -26 -84.5t-45.5 -48t-51 -22t-43.5 -5.5q-19 0 -45 5.5t-50.5 22t-43.5 48
t-25 84.5h45q11 -62 42.5 -91t79.5 -29q47 0 78 29t42 91h43z" />
    <glyph glyph-name="Gcircumflex" unicode="&#x11c;" horiz-adv-x="882" 
d="M469 -14q-87 0 -163.5 28.5t-134 81.5t-91 128.5t-33.5 168.5t33.5 168.5t91 128.5t134 81.5t163.5 28.5q46 0 90 -5.5t83 -15.5t72 -24t57 -32v-148h-10q-24 61 -57.5 98t-72 56.5t-80.5 25.5t-82 6q-57 0 -112 -20.5t-97.5 -65t-69 -114.5t-26.5 -168
q0 -105 28.5 -175.5t73.5 -113.5t101.5 -61t112.5 -18q37 0 72 5.5t64.5 15.5t53 22.5t38.5 27.5v234h-156v51h260v-276q-21 -24 -54.5 -46t-77 -38t-97 -25.5t-114.5 -9.5zM303 824l163 166h9l154 -166h-11l-148 79l-156 -79h-11z" />
    <glyph glyph-name="uni0122" unicode="&#x122;" horiz-adv-x="882" 
d="M469 -14q-87 0 -163.5 28.5t-134 81.5t-91 128.5t-33.5 168.5t33.5 168.5t91 128.5t134 81.5t163.5 28.5q46 0 90 -5.5t83 -15.5t72 -24t57 -32v-148h-10q-24 61 -57.5 98t-72 56.5t-80.5 25.5t-82 6q-57 0 -112 -20.5t-97.5 -65t-69 -114.5t-26.5 -168
q0 -105 28.5 -175.5t73.5 -113.5t101.5 -61t112.5 -18q37 0 72 5.5t64.5 15.5t53 22.5t38.5 27.5v234h-156v51h260v-276q-21 -24 -54.5 -46t-77 -38t-97 -25.5t-114.5 -9.5zM404 -126q0 23 15 39t42 16q28 0 42 -18.5t14 -46.5q0 -26 -10.5 -49t-28 -42.5t-39 -34
t-42.5 -23.5l-2 6q10 6 21 16.5t20.5 24t15.5 27.5t6 28q-22 2 -38 18t-16 39z" />
    <glyph glyph-name="Gdotaccent" unicode="&#x120;" horiz-adv-x="882" 
d="M469 -14q-87 0 -163.5 28.5t-134 81.5t-91 128.5t-33.5 168.5t33.5 168.5t91 128.5t134 81.5t163.5 28.5q46 0 90 -5.5t83 -15.5t72 -24t57 -32v-148h-10q-24 61 -57.5 98t-72 56.5t-80.5 25.5t-82 6q-57 0 -112 -20.5t-97.5 -65t-69 -114.5t-26.5 -168
q0 -105 28.5 -175.5t73.5 -113.5t101.5 -61t112.5 -18q37 0 72 5.5t64.5 15.5t53 22.5t38.5 27.5v234h-156v51h260v-276q-21 -24 -54.5 -46t-77 -38t-97 -25.5t-114.5 -9.5zM407 911q0 25 16.5 42t41.5 17t42 -17t17 -42t-17 -41.5t-42 -16.5t-41.5 16.5t-16.5 41.5z" />
    <glyph glyph-name="Hbar" unicode="&#x126;" horiz-adv-x="864" 
d="M645 379h-426v-379h-104v787h104v-160h426v160h104v-787h-104v379zM645 430v146h-426v-146h426z" />
    <glyph glyph-name="Hcircumflex" unicode="&#x124;" horiz-adv-x="864" 
d="M645 379h-426v-379h-104v787h104v-357h426v357h104v-787h-104v379zM269 824l163 166h9l154 -166h-11l-148 79l-156 -79h-11z" />
    <glyph glyph-name="Ibreve" unicode="&#x12c;" horiz-adv-x="334" 
d="M115 787h104v-787h-104v787zM333 984q-6 -53 -26 -84.5t-45.5 -48t-51 -22t-43.5 -5.5q-19 0 -45 5.5t-50.5 22t-43.5 48t-25 84.5h45q11 -62 42.5 -91t79.5 -29q47 0 78 29t42 91h43z" />
    <glyph glyph-name="Idotaccent" unicode="&#x130;" horiz-adv-x="334" 
d="M115 787h104v-787h-104v787zM109 911q0 25 16.5 42t41.5 17t42 -17t17 -42t-17 -41.5t-42 -16.5t-41.5 16.5t-16.5 41.5z" />
    <glyph glyph-name="Imacron" unicode="&#x12a;" horiz-adv-x="334" 
d="M115 787h104v-787h-104v787zM5 935h334v-47h-334v47z" />
    <glyph glyph-name="Iogonek" unicode="&#x12e;" horiz-adv-x="334" 
d="M115 787h104v-787h-29q-35 -33 -56.5 -71t-21.5 -70q0 -38 24.5 -54.5t53.5 -16.5q19 0 36 6l3 -8q-19 -12 -43.5 -20.5t-50.5 -8.5q-19 0 -36 4.5t-30.5 15t-21.5 26t-8 38.5q0 24 11.5 45.5t31 41.5t45 37.5t53.5 34.5h-65v787z" />
    <glyph glyph-name="Itilde" unicode="&#x128;" horiz-adv-x="334" 
d="M115 787h104v-787h-104v787zM340 991l7 -4l-47 -117h-258l-45 -47l-7 4l47 117h258z" />
    <glyph glyph-name="uni1ECA" unicode="&#x1eca;" horiz-adv-x="334" 
d="M115 787h104v-787h-104v787zM112 -149q0 25 16.5 42t41.5 17t42 -17t17 -42t-17 -41.5t-42 -16.5t-41.5 16.5t-16.5 41.5z" />
    <glyph glyph-name="Jcircumflex" unicode="&#x134;" horiz-adv-x="348" 
d="M238 787v-594q0 -59 -10.5 -100t-37 -73t-71 -60.5t-111.5 -62.5l-7 13q34 24 59 44.5t41.5 48.5t24.5 68t8 102v614h104zM21 824l163 166h9l154 -166h-11l-148 79l-156 -79h-11z" />
    <glyph glyph-name="uni0136" unicode="&#x136;" horiz-adv-x="747" 
d="M115 787h104v-394l439 394h62l-398 -357l430 -430h-142l-391 391v-391h-104v787zM321 -126q0 23 15 39t42 16q28 0 42 -18.5t14 -46.5q0 -26 -10.5 -49t-28 -42.5t-39 -34t-42.5 -23.5l-2 6q10 6 21 16.5t20.5 24t15.5 27.5t6 28q-22 2 -38 18t-16 39z" />
    <glyph glyph-name="Lacute" unicode="&#x139;" horiz-adv-x="634" 
d="M219 48h395v-48h-499v787h104v-739zM137 824h-13l86 166h110z" />
    <glyph glyph-name="Lcaron" unicode="&#x13d;" horiz-adv-x="634" 
d="M219 48h395v-48h-499v787h104v-739zM379 753q0 23 15 39t42 16q28 0 42 -18.5t14 -46.5q0 -26 -10.5 -49t-28 -42.5t-39 -34t-42.5 -23.5l-2 6q10 6 21 16.5t20.5 24t15.5 27.5t6 28q-22 2 -38 18t-16 39z" />
    <glyph glyph-name="uni013B" unicode="&#x13b;" horiz-adv-x="634" 
d="M219 48h395v-48h-499v787h104v-739zM290 -126q0 23 15 39t42 16q28 0 42 -18.5t14 -46.5q0 -26 -10.5 -49t-28 -42.5t-39 -34t-42.5 -23.5l-2 6q10 6 21 16.5t20.5 24t15.5 27.5t6 28q-22 2 -38 18t-16 39z" />
    <glyph glyph-name="Ldot" unicode="&#x13f;" horiz-adv-x="634" 
d="M219 48h395v-48h-499v787h104v-739zM346 405q0 25 16.5 42t41.5 17t42 -17t17 -42t-17 -41.5t-42 -16.5t-41.5 16.5t-16.5 41.5z" />
    <glyph glyph-name="Lslash" unicode="&#x141;" horiz-adv-x="651" 
d="M236 455l125 62l23 -45l-148 -74v-350h395v-48h-499v346l-110 -54l-22 45l132 66v384h104v-332z" />
    <glyph glyph-name="Nacute" unicode="&#x143;" 
d="M746 787v-787h-56l-520 707v-707h-55v787h121l455 -618v618h55zM435 824h-13l86 166h110z" />
    <glyph glyph-name="Ncaron" unicode="&#x147;" 
d="M746 787v-787h-56l-520 707v-707h-55v787h121l455 -618v618h55zM614 990h11l-163 -166h-9l-154 166h11l148 -79z" />
    <glyph glyph-name="uni0145" unicode="&#x145;" 
d="M746 787v-787h-56l-520 707v-707h-55v787h121l455 -618v618h55zM378 -126q0 23 15 39t42 16q28 0 42 -18.5t14 -46.5q0 -26 -10.5 -49t-28 -42.5t-39 -34t-42.5 -23.5l-2 6q10 6 21 16.5t20.5 24t15.5 27.5t6 28q-22 2 -38 18t-16 39z" />
    <glyph glyph-name="OE" unicode="&#x152;" horiz-adv-x="1313" 
d="M473 800q93 0 166.5 -32.5t124.5 -92.5v112h499v-48h-395v-310h346v-48h-346v-333h395v-48h-499v110q-51 -60 -124.5 -92t-166.5 -32q-87 0 -164 28.5t-135.5 81.5t-92.5 128.5t-34 168.5t34 168.5t92.5 128.5t135.5 81.5t164 28.5zM473 761q-57 0 -112.5 -20.5t-99 -65
t-70.5 -114.5t-27 -168t27 -168t70.5 -114.5t99 -65t112.5 -20.5t111 19t95.5 62.5t67 114t25.5 172.5t-25.5 172t-67 113.5t-95.5 63t-111 19.5z" />
    <glyph glyph-name="Obreve" unicode="&#x14e;" horiz-adv-x="946" 
d="M473 761q-57 0 -112.5 -20.5t-99 -65t-70.5 -114.5t-27 -168t27 -168t70.5 -114.5t99 -65t112.5 -20.5t112.5 20.5t99 65t70.5 114.5t27 168t-27 168t-70.5 114.5t-99 65t-112.5 20.5zM473 800q87 0 164 -28.5t135.5 -81.5t92.5 -128.5t34 -168.5t-34 -168.5
t-92.5 -128.5t-135.5 -81.5t-164 -28.5t-164 28.5t-135.5 81.5t-92.5 128.5t-34 168.5t34 168.5t92.5 128.5t135.5 81.5t164 28.5zM638 984q-6 -53 -26 -84.5t-45.5 -48t-51 -22t-43.5 -5.5q-19 0 -45 5.5t-50.5 22t-43.5 48t-25 84.5h45q11 -62 42.5 -91t79.5 -29
q47 0 78 29t42 91h43z" />
    <glyph glyph-name="Ohungarumlaut" unicode="&#x150;" horiz-adv-x="946" 
d="M473 761q-57 0 -112.5 -20.5t-99 -65t-70.5 -114.5t-27 -168t27 -168t70.5 -114.5t99 -65t112.5 -20.5t112.5 20.5t99 65t70.5 114.5t27 168t-27 168t-70.5 114.5t-99 65t-112.5 20.5zM473 800q87 0 164 -28.5t135.5 -81.5t92.5 -128.5t34 -168.5t-34 -168.5
t-92.5 -128.5t-135.5 -81.5t-164 -28.5t-164 28.5t-135.5 81.5t-92.5 128.5t-34 168.5t34 168.5t92.5 128.5t135.5 81.5t164 28.5zM378 824h-13l86 166h110zM533 824h-13l86 166h110z" />
    <glyph glyph-name="Omacron" unicode="&#x14c;" horiz-adv-x="946" 
d="M473 761q-57 0 -112.5 -20.5t-99 -65t-70.5 -114.5t-27 -168t27 -168t70.5 -114.5t99 -65t112.5 -20.5t112.5 20.5t99 65t70.5 114.5t27 168t-27 168t-70.5 114.5t-99 65t-112.5 20.5zM473 800q87 0 164 -28.5t135.5 -81.5t92.5 -128.5t34 -168.5t-34 -168.5
t-92.5 -128.5t-135.5 -81.5t-164 -28.5t-164 28.5t-135.5 81.5t-92.5 128.5t-34 168.5t34 168.5t92.5 128.5t135.5 81.5t164 28.5zM306 935h334v-47h-334v47z" />
    <glyph glyph-name="uni1ECC" unicode="&#x1ecc;" horiz-adv-x="946" 
d="M473 761q-57 0 -112.5 -20.5t-99 -65t-70.5 -114.5t-27 -168t27 -168t70.5 -114.5t99 -65t112.5 -20.5t112.5 20.5t99 65t70.5 114.5t27 168t-27 168t-70.5 114.5t-99 65t-112.5 20.5zM473 800q87 0 164 -28.5t135.5 -81.5t92.5 -128.5t34 -168.5t-34 -168.5
t-92.5 -128.5t-135.5 -81.5t-164 -28.5t-164 28.5t-135.5 81.5t-92.5 128.5t-34 168.5t34 168.5t92.5 128.5t135.5 81.5t164 28.5zM409 -149q0 25 16.5 42t41.5 17t42 -17t17 -42t-17 -41.5t-42 -16.5t-41.5 16.5t-16.5 41.5z" />
    <glyph glyph-name="Racute" unicode="&#x154;" horiz-adv-x="745" 
d="M597 0l-298 377h-80v-377h-104v787h184q65 0 125.5 -8.5t107.5 -31.5t75 -62.5t28 -102.5q0 -48 -16.5 -82t-45.5 -57.5t-68.5 -37t-84.5 -20.5l305 -385h-128zM292 422q52 0 94 6.5t71 24.5t45 49t16 80t-16 80t-45 49t-71 24.5t-94 6.5h-73v-320h73zM322 824h-13
l86 166h110z" />
    <glyph glyph-name="Rcaron" unicode="&#x158;" horiz-adv-x="745" 
d="M597 0l-298 377h-80v-377h-104v787h184q65 0 125.5 -8.5t107.5 -31.5t75 -62.5t28 -102.5q0 -48 -16.5 -82t-45.5 -57.5t-68.5 -37t-84.5 -20.5l305 -385h-128zM292 422q52 0 94 6.5t71 24.5t45 49t16 80t-16 80t-45 49t-71 24.5t-94 6.5h-73v-320h73zM505 990h11
l-163 -166h-9l-154 166h11l148 -79z" />
    <glyph glyph-name="uni0156" unicode="&#x156;" horiz-adv-x="745" 
d="M597 0l-298 377h-80v-377h-104v787h184q65 0 125.5 -8.5t107.5 -31.5t75 -62.5t28 -102.5q0 -48 -16.5 -82t-45.5 -57.5t-68.5 -37t-84.5 -20.5l305 -385h-128zM292 422q52 0 94 6.5t71 24.5t45 49t16 80t-16 80t-45 49t-71 24.5t-94 6.5h-73v-320h73zM315 -126
q0 23 15 39t42 16q28 0 42 -18.5t14 -46.5q0 -26 -10.5 -49t-28 -42.5t-39 -34t-42.5 -23.5l-2 6q10 6 21 16.5t20.5 24t15.5 27.5t6 28q-22 2 -38 18t-16 39z" />
    <glyph glyph-name="Sacute" unicode="&#x15a;" horiz-adv-x="688" 
d="M286 377q-104 35 -148.5 91.5t-44.5 130.5q0 45 20 82t54.5 63.5t81.5 41t101 14.5q64 0 119.5 -12.5t98.5 -32.5v-169h-10q-27 88 -80.5 131.5t-126.5 43.5q-78 0 -122 -36t-44 -93q0 -25 6 -47t20 -41t38.5 -35.5t62.5 -29.5l76 -26q46 -16 89.5 -36t77 -47.5
t53.5 -65.5t20 -90q0 -50 -19.5 -92t-56 -72t-89.5 -47t-120 -17q-150 0 -250 62l-3 175h10q32 -102 90 -150t149 -48q49 0 85.5 12t61 32.5t37 48t12.5 59.5q0 61 -39.5 101.5t-133.5 72.5zM319 824h-13l86 166h110z" />
    <glyph glyph-name="Scaron" unicode="&#x160;" horiz-adv-x="688" 
d="M286 377q-104 35 -148.5 91.5t-44.5 130.5q0 45 20 82t54.5 63.5t81.5 41t101 14.5q64 0 119.5 -12.5t98.5 -32.5v-169h-10q-27 88 -80.5 131.5t-126.5 43.5q-78 0 -122 -36t-44 -93q0 -25 6 -47t20 -41t38.5 -35.5t62.5 -29.5l76 -26q46 -16 89.5 -36t77 -47.5
t53.5 -65.5t20 -90q0 -50 -19.5 -92t-56 -72t-89.5 -47t-120 -17q-150 0 -250 62l-3 175h10q32 -102 90 -150t149 -48q49 0 85.5 12t61 32.5t37 48t12.5 59.5q0 61 -39.5 101.5t-133.5 72.5zM505 990h11l-163 -166h-9l-154 166h11l148 -79z" />
    <glyph glyph-name="Scedilla" unicode="&#x15e;" horiz-adv-x="688" 
d="M531 176q0 60 -40 100.5t-131 75.5l-72 27q-103 38 -148.5 93t-45.5 129q0 45 19.5 81.5t53.5 63t80.5 40.5t100.5 14q66 0 121.5 -16t98.5 -37v-164h-10q-26 90 -80 134t-127 44q-78 0 -122.5 -35.5t-44.5 -92.5q0 -24 6.5 -46.5t21.5 -42t40 -36.5t62 -30l75 -28
q36 -14 77.5 -31.5t76 -44.5t57.5 -66t23 -95q0 -48 -18 -89t-52 -71t-83 -47.5t-110 -19.5l-47 -84q12 9 26 14.5t31 5.5q35 0 57.5 -17t22.5 -54q0 -28 -18 -50t-44.5 -37t-57.5 -22.5t-58 -6.5l-3 6q33 3 57 15t40.5 28t24.5 33t8 31q0 23 -11.5 35t-38.5 12
q-12 0 -22.5 -4t-18.5 -10l-24 19l46 86q-74 2 -135.5 18.5t-109.5 48.5v175h10q32 -103 90 -153t152 -50q48 0 84.5 11.5t61 32t36.5 48t12 59.5z" />
    <glyph glyph-name="Scircumflex" unicode="&#x15c;" horiz-adv-x="688" 
d="M286 377q-104 35 -148.5 91.5t-44.5 130.5q0 45 20 82t54.5 63.5t81.5 41t101 14.5q64 0 119.5 -12.5t98.5 -32.5v-169h-10q-27 88 -80.5 131.5t-126.5 43.5q-78 0 -122 -36t-44 -93q0 -25 6 -47t20 -41t38.5 -35.5t62.5 -29.5l76 -26q46 -16 89.5 -36t77 -47.5
t53.5 -65.5t20 -90q0 -50 -19.5 -92t-56 -72t-89.5 -47t-120 -17q-150 0 -250 62l-3 175h10q32 -102 90 -150t149 -48q49 0 85.5 12t61 32.5t37 48t12.5 59.5q0 61 -39.5 101.5t-133.5 72.5zM181 824l163 166h9l154 -166h-11l-148 79l-156 -79h-11z" />
    <glyph glyph-name="uni0218" unicode="&#x218;" horiz-adv-x="688" 
d="M286 377q-104 35 -148.5 91.5t-44.5 130.5q0 45 20 82t54.5 63.5t81.5 41t101 14.5q64 0 119.5 -12.5t98.5 -32.5v-169h-10q-27 88 -80.5 131.5t-126.5 43.5q-78 0 -122 -36t-44 -93q0 -25 6 -47t20 -41t38.5 -35.5t62.5 -29.5l76 -26q46 -16 89.5 -36t77 -47.5
t53.5 -65.5t20 -90q0 -50 -19.5 -92t-56 -72t-89.5 -47t-120 -17q-150 0 -250 62l-3 175h10q32 -102 90 -150t149 -48q49 0 85.5 12t61 32.5t37 48t12.5 59.5q0 61 -39.5 101.5t-133.5 72.5zM289 -126q0 23 15 39t42 16q28 0 42 -18.5t14 -46.5q0 -26 -10.5 -49t-28 -42.5
t-39 -34t-42.5 -23.5l-2 6q10 6 21 16.5t20.5 24t15.5 27.5t6 28q-22 2 -38 18t-16 39z" />
    <glyph glyph-name="Tcaron" unicode="&#x164;" horiz-adv-x="704" 
d="M404 0h-104v739h-280v48h664v-48h-280v-739zM504 990h11l-163 -166h-9l-154 166h11l148 -79z" />
    <glyph glyph-name="uni0162" unicode="&#x162;" horiz-adv-x="704" 
d="M404 0h-104v739h-280v48h664v-48h-280v-739zM296 -126q0 23 15 39t42 16q28 0 42 -18.5t14 -46.5q0 -26 -10.5 -49t-28 -42.5t-39 -34t-42.5 -23.5l-2 6q10 6 21 16.5t20.5 24t15.5 27.5t6 28q-22 2 -38 18t-16 39z" />
    <glyph glyph-name="Ubreve" unicode="&#x16c;" 
d="M214 787v-508q0 -61 17 -106.5t48.5 -75.5t75.5 -45t97 -15q124 0 189 60.5t65 192.5v497h55v-494q0 -83 -22.5 -141.5t-64 -95t-101 -53.5t-133.5 -17t-134.5 18.5t-104 55t-67.5 91.5t-24 128v508h104zM627 984q-6 -53 -26 -84.5t-45.5 -48t-51 -22t-43.5 -5.5
q-19 0 -45 5.5t-50.5 22t-43.5 48t-25 84.5h45q11 -62 42.5 -91t79.5 -29q47 0 78 29t42 91h43z" />
    <glyph glyph-name="Uhungarumlaut" unicode="&#x170;" 
d="M214 787v-508q0 -61 17 -106.5t48.5 -75.5t75.5 -45t97 -15q124 0 189 60.5t65 192.5v497h55v-494q0 -83 -22.5 -141.5t-64 -95t-101 -53.5t-133.5 -17t-134.5 18.5t-104 55t-67.5 91.5t-24 128v508h104zM356 824h-13l86 166h110zM511 824h-13l86 166h110z" />
    <glyph glyph-name="Umacron" unicode="&#x16a;" 
d="M214 787v-508q0 -61 17 -106.5t48.5 -75.5t75.5 -45t97 -15q124 0 189 60.5t65 192.5v497h55v-494q0 -83 -22.5 -141.5t-64 -95t-101 -53.5t-133.5 -17t-134.5 18.5t-104 55t-67.5 91.5t-24 128v508h104zM293 935h334v-47h-334v47z" />
    <glyph glyph-name="Uogonek" unicode="&#x172;" 
d="M541 -214q-19 -12 -43.5 -20.5t-50.5 -8.5q-19 0 -36 4.5t-30.5 15t-21.5 26t-8 38.5q0 43 34.5 79t84.5 67q-8 -1 -15 -1h-15q-74 0 -134.5 18.5t-104 55t-67.5 91.5t-24 128v508h104v-508q0 -61 17 -106.5t48.5 -75.5t75.5 -45t97 -15q124 0 189 60.5t65 192.5v497h55
v-494q0 -76 -19 -131t-54 -92t-85 -57t-113 -25q-30 -31 -48 -65.5t-18 -63.5q0 -38 24.5 -54.5t53.5 -16.5q19 0 36 6z" />
    <glyph glyph-name="Uring" unicode="&#x16e;" 
d="M214 787v-508q0 -61 17 -106.5t48.5 -75.5t75.5 -45t97 -15q124 0 189 60.5t65 192.5v497h55v-494q0 -83 -22.5 -141.5t-64 -95t-101 -53.5t-133.5 -17t-134.5 18.5t-104 55t-67.5 91.5t-24 128v508h104zM559 913q0 -21 -8 -38.5t-22 -31t-32.5 -21t-39.5 -7.5t-39.5 7.5
t-32.5 21t-22 31t-8 38.5t8 38.5t22 31t32.5 21t39.5 7.5t39.5 -7.5t32.5 -21t22 -31t8 -38.5zM521 913q0 29 -19 47t-45 18q-28 0 -45.5 -19t-17.5 -46t17.5 -46t45.5 -19q30 0 47 19t17 46z" />
    <glyph glyph-name="Utilde" unicode="&#x168;" 
d="M214 787v-508q0 -61 17 -106.5t48.5 -75.5t75.5 -45t97 -15q124 0 189 60.5t65 192.5v497h55v-494q0 -83 -22.5 -141.5t-64 -95t-101 -53.5t-133.5 -17t-134.5 18.5t-104 55t-67.5 91.5t-24 128v508h104zM651 991l7 -4l-47 -117h-258l-45 -47l-7 4l47 117h258z" />
    <glyph glyph-name="uni1EE4" unicode="&#x1ee4;" 
d="M214 787v-508q0 -61 17 -106.5t48.5 -75.5t75.5 -45t97 -15q124 0 189 60.5t65 192.5v497h55v-494q0 -83 -22.5 -141.5t-64 -95t-101 -53.5t-133.5 -17t-134.5 18.5t-104 55t-67.5 91.5t-24 128v508h104zM388 -149q0 25 16.5 42t41.5 17t42 -17t17 -42t-17 -41.5
t-42 -16.5t-41.5 16.5t-16.5 41.5z" />
    <glyph glyph-name="Wacute" unicode="&#x1e82;" horiz-adv-x="1125" 
d="M1097 787l-253 -787h-78l-211 642l-195 -642h-79l-253 787h111l207 -655l201 655h70l217 -652l207 652h56zM569 824h-13l86 166h110z" />
    <glyph glyph-name="Wcircumflex" unicode="&#x174;" horiz-adv-x="1125" 
d="M1097 787l-253 -787h-78l-211 642l-195 -642h-79l-253 787h111l207 -655l201 655h70l217 -652l207 652h56zM421 824l163 166h9l154 -166h-11l-148 79l-156 -79h-11z" />
    <glyph glyph-name="Wdieresis" unicode="&#x1e84;" horiz-adv-x="1125" 
d="M1097 787l-253 -787h-78l-211 642l-195 -642h-79l-253 787h111l207 -655l201 655h70l217 -652l207 652h56zM398 911q0 25 16.5 42t41.5 17t42 -17t17 -42t-17 -41.5t-42 -16.5t-41.5 16.5t-16.5 41.5zM630 911q0 25 16.5 42t41.5 17t42 -17t17 -42t-17 -41.5t-42 -16.5
t-41.5 16.5t-16.5 41.5z" />
    <glyph glyph-name="Wgrave" unicode="&#x1e80;" horiz-adv-x="1125" 
d="M1097 787l-253 -787h-78l-211 642l-195 -642h-79l-253 787h111l207 -655l201 655h70l217 -652l207 652h56zM408 990h110l86 -166h-13z" />
    <glyph glyph-name="Ycircumflex" unicode="&#x176;" horiz-adv-x="699" 
d="M296 337l-276 450h113l245 -401l244 401h57l-279 -451v-336h-104v337zM234 824l163 166h9l154 -166h-11l-148 79l-156 -79h-11z" />
    <glyph glyph-name="Ydieresis" unicode="&#x178;" horiz-adv-x="699" 
d="M296 337l-276 450h113l245 -401l244 401h57l-279 -451v-336h-104v337zM217 911q0 25 16.5 42t41.5 17t42 -17t17 -42t-17 -41.5t-42 -16.5t-41.5 16.5t-16.5 41.5zM449 911q0 25 16.5 42t41.5 17t42 -17t17 -42t-17 -41.5t-42 -16.5t-41.5 16.5t-16.5 41.5z" />
    <glyph glyph-name="Ygrave" unicode="&#x1ef2;" horiz-adv-x="699" 
d="M296 337l-276 450h113l245 -401l244 401h57l-279 -451v-336h-104v337zM239 990h110l86 -166h-13z" />
    <glyph glyph-name="uni0232" unicode="&#x232;" horiz-adv-x="699" 
d="M296 337l-276 450h113l245 -401l244 401h57l-279 -451v-336h-104v337zM220 935h334v-47h-334v47z" />
    <glyph glyph-name="Zacute" unicode="&#x179;" horiz-adv-x="684" 
d="M147 45h493v-45h-607v45l503 697h-444v45h558v-45zM363 824h-13l86 166h110z" />
    <glyph glyph-name="Zcaron" unicode="&#x17d;" horiz-adv-x="684" 
d="M147 45h493v-45h-607v45l503 697h-444v45h558v-45zM545 990h11l-163 -166h-9l-154 166h11l148 -79z" />
    <glyph glyph-name="Zdotaccent" unicode="&#x17b;" horiz-adv-x="684" 
d="M147 45h493v-45h-607v45l503 697h-444v45h558v-45zM340 911q0 25 16.5 42t41.5 17t42 -17t17 -42t-17 -41.5t-42 -16.5t-41.5 16.5t-16.5 41.5z" />
    <glyph glyph-name="abreve" unicode="&#x103;" horiz-adv-x="514" 
d="M331 235q-57 0 -94.5 -10.5t-59.5 -28t-30.5 -39t-8.5 -43.5q0 -40 24.5 -61.5t63.5 -21.5q25 0 53 11t51 36q-25 -42 -60 -67t-85 -25q-68 0 -110 36t-42 93q0 41 24 68.5t65 43.5t95 23t114 7l1 82q1 76 -24 107t-66 31q-50 0 -66 -21t-8 -58q5 -26 -8 -43t-36 -17
q-20 0 -34 13t-14 37q0 22 14 43.5t37.5 37.5t54.5 26t66 10q39 0 71.5 -9t56 -30.5t36 -58t12.5 -90.5l-2 -232q-1 -37 9 -49.5t29 -12.5q24 0 51 27l8 -8q-24 -32 -50 -42.5t-50 -10.5q-18 0 -34 5t-28.5 16.5t-19.5 30.5t-7 48zM442 749q-6 -53 -26 -84.5t-45.5 -48
t-51 -22t-43.5 -5.5q-19 0 -45 5.5t-50.5 22t-43.5 48t-25 84.5h45q11 -62 42.5 -91t79.5 -29q47 0 78 29t42 91h43z" />
    <glyph glyph-name="amacron" unicode="&#x101;" horiz-adv-x="514" 
d="M331 235q-57 0 -94.5 -10.5t-59.5 -28t-30.5 -39t-8.5 -43.5q0 -40 24.5 -61.5t63.5 -21.5q25 0 53 11t51 36q-25 -42 -60 -67t-85 -25q-68 0 -110 36t-42 93q0 41 24 68.5t65 43.5t95 23t114 7l1 82q1 76 -24 107t-66 31q-50 0 -66 -21t-8 -58q5 -26 -8 -43t-36 -17
q-20 0 -34 13t-14 37q0 22 14 43.5t37.5 37.5t54.5 26t66 10q39 0 71.5 -9t56 -30.5t36 -58t12.5 -90.5l-2 -232q-1 -37 9 -49.5t29 -12.5q24 0 51 27l8 -8q-24 -32 -50 -42.5t-50 -10.5q-18 0 -34 5t-28.5 16.5t-19.5 30.5t-7 48zM100 716h334v-47h-334v47z" />
    <glyph glyph-name="aogonek" unicode="&#x105;" horiz-adv-x="524" 
d="M480 -214q-19 -12 -43.5 -20.5t-50.5 -8.5q-19 0 -36 4.5t-30.5 15t-21.5 26t-8 38.5q0 22 10 42t26.5 38.5t39 35.5t48.5 33q-31 4 -53 26t-21 73l1 146q-57 0 -94.5 -10.5t-59.5 -28t-30.5 -39t-8.5 -43.5q0 -40 24.5 -61.5t63.5 -21.5q25 0 53 11t51 36
q-25 -42 -60 -67t-85 -25q-68 0 -110 36t-42 93q0 41 24 68.5t65 43.5t95 23t114 7l1 82q1 76 -24 107t-66 31q-50 0 -66 -21t-8 -58q5 -26 -8 -43t-36 -17q-20 0 -34 13t-14 37q0 22 14 43.5t37.5 37.5t54.5 26t66 10q39 0 71.5 -9t56 -30.5t36 -58t12.5 -90.5l-2 -232
q-1 -37 9 -49.5t29 -12.5q11 0 24.5 6t27.5 20l7 -7q-24 -32 -49.5 -42.5t-49.5 -10.5q-30 -32 -48.5 -66t-18.5 -64q0 -38 24.5 -54.5t53.5 -16.5q19 0 36 6z" />
    <glyph glyph-name="cacute" unicode="&#x107;" horiz-adv-x="519" 
d="M298 472q-35 0 -64 -14t-50 -41t-32.5 -66t-9.5 -89q1 -48 13.5 -88.5t35.5 -70t56 -46t76 -16.5q22 0 45 5.5t44.5 19t41 36.5t33.5 59l11 -4q-41 -171 -209 -171q-53 0 -98.5 17.5t-79 50.5t-52.5 80.5t-19 107.5q0 64 23.5 112.5t62 81t86.5 49t97 16.5
q33 0 63.5 -6.5t54.5 -18.5t38.5 -29t14.5 -38q0 -18 -12 -31.5t-32 -13.5q-23 0 -34.5 8t-18 20t-10.5 26t-11.5 26t-22 20t-41.5 8zM259 604h-13l86 183h110z" />
    <glyph glyph-name="ccaron" unicode="&#x10d;" horiz-adv-x="519" 
d="M298 472q-35 0 -64 -14t-50 -41t-32.5 -66t-9.5 -89q1 -48 13.5 -88.5t35.5 -70t56 -46t76 -16.5q22 0 45 5.5t44.5 19t41 36.5t33.5 59l11 -4q-41 -171 -209 -171q-53 0 -98.5 17.5t-79 50.5t-52.5 80.5t-19 107.5q0 64 23.5 112.5t62 81t86.5 49t97 16.5
q33 0 63.5 -6.5t54.5 -18.5t38.5 -29t14.5 -38q0 -18 -12 -31.5t-32 -13.5q-23 0 -34.5 8t-18 20t-10.5 26t-11.5 26t-22 20t-41.5 8zM455 790l-163 -186h-9l-154 186h11l148 -99l156 99h11z" />
    <glyph glyph-name="ccircumflex" unicode="&#x109;" horiz-adv-x="519" 
d="M298 472q-35 0 -64 -14t-50 -41t-32.5 -66t-9.5 -89q1 -48 13.5 -88.5t35.5 -70t56 -46t76 -16.5q22 0 45 5.5t44.5 19t41 36.5t33.5 59l11 -4q-41 -171 -209 -171q-53 0 -98.5 17.5t-79 50.5t-52.5 80.5t-19 107.5q0 64 23.5 112.5t62 81t86.5 49t97 16.5
q33 0 63.5 -6.5t54.5 -18.5t38.5 -29t14.5 -38q0 -18 -12 -31.5t-32 -13.5q-23 0 -34.5 8t-18 20t-10.5 26t-11.5 26t-22 20t-41.5 8zM131 604l163 186h9l154 -186h-11l-148 99l-156 -99h-11z" />
    <glyph glyph-name="cdotaccent" unicode="&#x10b;" horiz-adv-x="519" 
d="M298 472q-35 0 -64 -14t-50 -41t-32.5 -66t-9.5 -89q1 -48 13.5 -88.5t35.5 -70t56 -46t76 -16.5q22 0 45 5.5t44.5 19t41 36.5t33.5 59l11 -4q-41 -171 -209 -171q-53 0 -98.5 17.5t-79 50.5t-52.5 80.5t-19 107.5q0 64 23.5 112.5t62 81t86.5 49t97 16.5
q33 0 63.5 -6.5t54.5 -18.5t38.5 -29t14.5 -38q0 -18 -12 -31.5t-32 -13.5q-23 0 -34.5 8t-18 20t-10.5 26t-11.5 26t-22 20t-41.5 8zM235 681q0 25 16.5 42t41.5 17t42 -17t17 -42t-17 -41.5t-42 -16.5t-41.5 16.5t-16.5 41.5z" />
    <glyph glyph-name="dcaron" unicode="&#x10f;" horiz-adv-x="701" 
d="M532 787v-787h-92v787h92zM40 244q0 56 18 103t50.5 81.5t78 54t100.5 19.5q28 0 52 -7.5t43 -19t33.5 -26t24.5 -27.5q-26 20 -52 27.5t-58 7.5q-42 0 -76.5 -14.5t-59.5 -42.5t-38.5 -67.5t-13.5 -88.5q0 -50 13.5 -89.5t38.5 -67t59.5 -42.5t76.5 -15q32 0 58 7.5
t52 27.5q-10 -14 -24.5 -28t-33.5 -25t-43 -18.5t-52 -7.5q-55 0 -100.5 19.5t-78 54t-50.5 81.5t-18 103zM608 743q0 23 15 39t42 16q28 0 42 -18.5t14 -46.5q0 -26 -10.5 -49t-28 -42.5t-39 -34t-42.5 -23.5l-2 6q10 6 21 16.5t20.5 24t15.5 27.5t6 28q-22 2 -38 18
t-16 39z" />
    <glyph glyph-name="dcroat" unicode="&#x111;" horiz-adv-x="628" 
d="M532 787v-144h100v-41h-100v-602h-92v602h-139v41h139v144h92zM40 244q0 56 18 103t50.5 81.5t78 54t100.5 19.5q28 0 52 -7.5t43 -19t33.5 -26t24.5 -27.5q-26 20 -52 27.5t-58 7.5q-42 0 -76.5 -14.5t-59.5 -42.5t-38.5 -67.5t-13.5 -88.5q0 -50 13.5 -89.5t38.5 -67
t59.5 -42.5t76.5 -15q32 0 58 7.5t52 27.5q-10 -14 -24.5 -28t-33.5 -25t-43 -18.5t-52 -7.5q-55 0 -100.5 19.5t-78 54t-50.5 81.5t-18 103z" />
    <glyph glyph-name="ebreve" unicode="&#x115;" horiz-adv-x="547" 
d="M293 473q-34 0 -59.5 -12t-43 -31.5t-28.5 -44.5t-15 -51h258q-5 68 -31 103.5t-81 35.5zM142 299q-1 -8 -1 -16.5v-16.5q0 -49 12 -90t36 -71t59 -47t82 -17q26 0 52 6t49.5 20t42.5 37t31 57l12 -3q-43 -172 -219 -172q-57 0 -104.5 18t-81.5 51t-53 80t-19 106
q0 58 20.5 106t55 82.5t80.5 53.5t97 19q44 0 82 -14t67.5 -40t47.5 -63.5t21 -85.5h-369zM454 749q-6 -53 -26 -84.5t-45.5 -48t-51 -22t-43.5 -5.5q-19 0 -45 5.5t-50.5 22t-43.5 48t-25 84.5h45q11 -62 42.5 -91t79.5 -29q47 0 78 29t42 91h43z" />
    <glyph glyph-name="ecaron" unicode="&#x11b;" horiz-adv-x="547" 
d="M293 473q-34 0 -59.5 -12t-43 -31.5t-28.5 -44.5t-15 -51h258q-5 68 -31 103.5t-81 35.5zM142 299q-1 -8 -1 -16.5v-16.5q0 -49 12 -90t36 -71t59 -47t82 -17q26 0 52 6t49.5 20t42.5 37t31 57l12 -3q-43 -172 -219 -172q-57 0 -104.5 18t-81.5 51t-53 80t-19 106
q0 58 20.5 106t55 82.5t80.5 53.5t97 19q44 0 82 -14t67.5 -40t47.5 -63.5t21 -85.5h-369zM462 790l-163 -186h-9l-154 186h11l148 -99l156 99h11z" />
    <glyph glyph-name="emacron" unicode="&#x113;" horiz-adv-x="547" 
d="M293 473q-34 0 -59.5 -12t-43 -31.5t-28.5 -44.5t-15 -51h258q-5 68 -31 103.5t-81 35.5zM142 299q-1 -8 -1 -16.5v-16.5q0 -49 12 -90t36 -71t59 -47t82 -17q26 0 52 6t49.5 20t42.5 37t31 57l12 -3q-43 -172 -219 -172q-57 0 -104.5 18t-81.5 51t-53 80t-19 106
q0 58 20.5 106t55 82.5t80.5 53.5t97 19q44 0 82 -14t67.5 -40t47.5 -63.5t21 -85.5h-369zM131 716h334v-47h-334v47z" />
    <glyph glyph-name="eogonek" unicode="&#x119;" horiz-adv-x="547" 
d="M293 473q-34 0 -59.5 -12t-43 -31.5t-28.5 -44.5t-15 -51h258q-5 68 -31 103.5t-81 35.5zM142 299q-1 -8 -1 -16.5v-16.5q0 -49 12 -90t36 -71t59 -47t82 -17q26 0 52 6t49.5 20t42.5 37t31 57l12 -3q-43 -172 -219 -172q-57 0 -104.5 18t-81.5 51t-53 80t-19 106
q0 58 20.5 106t55 82.5t80.5 53.5t97 19q44 0 82 -14t67.5 -40t47.5 -63.5t21 -85.5h-369zM396 -214q-19 -12 -43.5 -20.5t-50.5 -8.5q-19 0 -36 4.5t-30.5 15t-21.5 26t-8 38.5q0 24 11.5 45.5t31 41.5t45 37.5t53.5 34.5h10q-35 -33 -56.5 -71t-21.5 -70q0 -38 24.5 -54.5
t53.5 -16.5q19 0 36 6z" />
    <glyph glyph-name="edotaccent" unicode="&#x117;" horiz-adv-x="547" 
d="M293 473q-34 0 -59.5 -12t-43 -31.5t-28.5 -44.5t-15 -51h258q-5 68 -31 103.5t-81 35.5zM142 299q-1 -8 -1 -16.5v-16.5q0 -49 12 -90t36 -71t59 -47t82 -17q26 0 52 6t49.5 20t42.5 37t31 57l12 -3q-43 -172 -219 -172q-57 0 -104.5 18t-81.5 51t-53 80t-19 106
q0 58 20.5 106t55 82.5t80.5 53.5t97 19q44 0 82 -14t67.5 -40t47.5 -63.5t21 -85.5h-369zM222 681q0 25 16.5 42t41.5 17t42 -17t17 -42t-17 -41.5t-42 -16.5t-41.5 16.5t-16.5 41.5z" />
    <glyph glyph-name="gbreve" unicode="&#x11f;" horiz-adv-x="585" 
d="M269 502q37 0 79 -11h244v-41l-169 5q29 -20 47.5 -50t18.5 -72q0 -39 -18.5 -70.5t-49.5 -53.5t-70.5 -33.5t-81.5 -11.5q-41 0 -77 10q-39 -9 -53 -26t-14 -31q0 -20 18.5 -32t69.5 -12h78q51 0 96.5 -4t80 -17t55 -38.5t20.5 -67.5q0 -50 -26 -88.5t-67.5 -64.5
t-93 -39t-101.5 -13q-49 0 -93 9t-77 26t-52.5 42.5t-19.5 57.5q0 24 12.5 41.5t35 29.5t54 20t68.5 12q-49 -17 -67.5 -39.5t-18.5 -51.5q0 -32 14 -53t37.5 -33.5t53 -18t61.5 -5.5q35 0 71 7t65.5 21.5t48 35.5t18.5 49q0 48 -37.5 68t-121.5 20h-114q-37 0 -62.5 9.5
t-41 23.5t-22.5 31.5t-7 32.5q0 41 35.5 65.5t95.5 32.5q-30 9 -55.5 23.5t-44.5 34.5t-30 45.5t-11 55.5q0 39 18.5 70.5t49.5 53.5t70 33.5t81 11.5zM384 333q0 138 -115 138q-113 0 -113 -138q0 -67 28.5 -102.5t84.5 -35.5t85.5 33t29.5 105zM451 749q-6 -53 -26 -84.5
t-45.5 -48t-51 -22t-43.5 -5.5q-19 0 -45 5.5t-50.5 22t-43.5 48t-25 84.5h45q11 -62 42.5 -91t79.5 -29q47 0 78 29t42 91h43z" />
    <glyph glyph-name="gcircumflex" unicode="&#x11d;" horiz-adv-x="585" 
d="M269 502q37 0 79 -11h244v-41l-169 5q29 -20 47.5 -50t18.5 -72q0 -39 -18.5 -70.5t-49.5 -53.5t-70.5 -33.5t-81.5 -11.5q-41 0 -77 10q-39 -9 -53 -26t-14 -31q0 -20 18.5 -32t69.5 -12h78q51 0 96.5 -4t80 -17t55 -38.5t20.5 -67.5q0 -50 -26 -88.5t-67.5 -64.5
t-93 -39t-101.5 -13q-49 0 -93 9t-77 26t-52.5 42.5t-19.5 57.5q0 24 12.5 41.5t35 29.5t54 20t68.5 12q-49 -17 -67.5 -39.5t-18.5 -51.5q0 -32 14 -53t37.5 -33.5t53 -18t61.5 -5.5q35 0 71 7t65.5 21.5t48 35.5t18.5 49q0 48 -37.5 68t-121.5 20h-114q-37 0 -62.5 9.5
t-41 23.5t-22.5 31.5t-7 32.5q0 41 35.5 65.5t95.5 32.5q-30 9 -55.5 23.5t-44.5 34.5t-30 45.5t-11 55.5q0 39 18.5 70.5t49.5 53.5t70 33.5t81 11.5zM384 333q0 138 -115 138q-113 0 -113 -138q0 -67 28.5 -102.5t84.5 -35.5t85.5 33t29.5 105zM114 604l163 186h9
l154 -186h-11l-148 99l-156 -99h-11z" />
    <glyph glyph-name="uni0123" unicode="&#x123;" horiz-adv-x="585" 
d="M269 502q37 0 79 -11h244v-41l-169 5q29 -20 47.5 -50t18.5 -72q0 -39 -18.5 -70.5t-49.5 -53.5t-70.5 -33.5t-81.5 -11.5q-41 0 -77 10q-39 -9 -53 -26t-14 -31q0 -20 18.5 -32t69.5 -12h78q51 0 96.5 -4t80 -17t55 -38.5t20.5 -67.5q0 -50 -26 -88.5t-67.5 -64.5
t-93 -39t-101.5 -13q-49 0 -93 9t-77 26t-52.5 42.5t-19.5 57.5q0 24 12.5 41.5t35 29.5t54 20t68.5 12q-49 -17 -67.5 -39.5t-18.5 -51.5q0 -32 14 -53t37.5 -33.5t53 -18t61.5 -5.5q35 0 71 7t65.5 21.5t48 35.5t18.5 49q0 48 -37.5 68t-121.5 20h-114q-37 0 -62.5 9.5
t-41 23.5t-22.5 31.5t-7 32.5q0 41 35.5 65.5t95.5 32.5q-30 9 -55.5 23.5t-44.5 34.5t-30 45.5t-11 55.5q0 39 18.5 70.5t49.5 53.5t70 33.5t81 11.5zM384 333q0 138 -115 138q-113 0 -113 -138q0 -67 28.5 -102.5t84.5 -35.5t85.5 33t29.5 105zM331.979 638.961
q0 -22.998 -14.999 -38.998q-14.999 -15.998 -41.9971 -15.998q-27.998 0 -41.998 18.498q-13.999 18.499 -13.999 46.4971q0 25.999 10.5 48.9971q10.499 22.999 27.998 42.498q17.499 19.498 38.9971 33.998q21.499 14.499 42.498 23.498l2 -6
q-10 -5.99902 -20.999 -16.498q-10.999 -10.5 -20.499 -23.999q-9.49902 -13.499 -15.499 -27.498q-5.99902 -13.999 -5.99902 -27.999q21.998 -1.99902 37.9971 -17.998t15.999 -38.998z" />
    <glyph glyph-name="gdotaccent" unicode="&#x121;" horiz-adv-x="585" 
d="M269 502q37 0 79 -11h244v-41l-169 5q29 -20 47.5 -50t18.5 -72q0 -39 -18.5 -70.5t-49.5 -53.5t-70.5 -33.5t-81.5 -11.5q-41 0 -77 10q-39 -9 -53 -26t-14 -31q0 -20 18.5 -32t69.5 -12h78q51 0 96.5 -4t80 -17t55 -38.5t20.5 -67.5q0 -50 -26 -88.5t-67.5 -64.5
t-93 -39t-101.5 -13q-49 0 -93 9t-77 26t-52.5 42.5t-19.5 57.5q0 24 12.5 41.5t35 29.5t54 20t68.5 12q-49 -17 -67.5 -39.5t-18.5 -51.5q0 -32 14 -53t37.5 -33.5t53 -18t61.5 -5.5q35 0 71 7t65.5 21.5t48 35.5t18.5 49q0 48 -37.5 68t-121.5 20h-114q-37 0 -62.5 9.5
t-41 23.5t-22.5 31.5t-7 32.5q0 41 35.5 65.5t95.5 32.5q-30 9 -55.5 23.5t-44.5 34.5t-30 45.5t-11 55.5q0 39 18.5 70.5t49.5 53.5t70 33.5t81 11.5zM384 333q0 138 -115 138q-113 0 -113 -138q0 -67 28.5 -102.5t84.5 -35.5t85.5 33t29.5 105zM214 681q0 25 16.5 42
t41.5 17t42 -17t17 -42t-17 -41.5t-42 -16.5t-41.5 16.5t-16.5 41.5z" />
    <glyph glyph-name="hbar" unicode="&#x127;" horiz-adv-x="638" 
d="M20 643h100v144h92v-144h139v-41h-139v-258q6 34 20 63t36.5 50t52.5 33t66 12q46 0 78.5 -14.5t52.5 -40.5t29 -61.5t9 -77.5v-308h-92v306q0 76 -30 111t-82 35q-21 0 -42.5 -6t-40.5 -19.5t-33.5 -34t-23.5 -48.5v-344h-92v602h-100v41z" />
    <glyph glyph-name="hcircumflex" unicode="&#x125;" horiz-adv-x="614" 
d="M328 452q-21 0 -42.5 -6t-40.5 -19.5t-33.5 -34t-23.5 -48.5v-344h-92v787h92v-443q6 34 20 63t36.5 50t52.5 33t66 12q46 0 78.5 -14.5t52.5 -40.5t29 -61.5t9 -77.5v-308h-92v306q0 76 -30 111t-82 35zM-18 807l163 166h9l154 -166h-11l-148 79l-156 -79h-11z" />
    <glyph glyph-name="dotlessi" unicode="&#x131;" horiz-adv-x="284" 
d="M188 0h-92v491h92v-491z" />
    <glyph glyph-name="ibreve" unicode="&#x12d;" horiz-adv-x="284" 
d="M188 0h-92v491h92v-491zM308 749q-6 -53 -26 -84.5t-45.5 -48t-51 -22t-43.5 -5.5q-19 0 -45 5.5t-50.5 22t-43.5 48t-25 84.5h45q11 -62 42.5 -91t79.5 -29q47 0 78 29t42 91h43z" />
    <glyph glyph-name="imacron" unicode="&#x12b;" horiz-adv-x="284" 
d="M188 0h-92v491h92v-491zM-24 716h334v-47h-334v47z" />
    <glyph glyph-name="iogonek" unicode="&#x12f;" horiz-adv-x="284" 
d="M188 0h-30q-35 -33 -56.5 -71t-21.5 -70q0 -38 24.5 -54.5t53.5 -16.5q19 0 36 6l3 -8q-19 -12 -43.5 -20.5t-50.5 -8.5q-19 0 -36 4.5t-30.5 15t-21.5 26t-8 38.5q0 24 11.5 45.5t31 41.5t45 37.5t53.5 34.5h-52v491h92v-491zM83 707q0 25 16.5 42t41.5 17t42 -17
t17 -42t-17 -41.5t-42 -16.5t-41.5 16.5t-16.5 41.5z" />
    <glyph glyph-name="itilde" unicode="&#x129;" horiz-adv-x="284" 
d="M188 0h-92v491h92v-491zM315 775l7 -4l-47 -117h-258l-45 -47l-7 4l47 117h258z" />
    <glyph glyph-name="uni1ECB" unicode="&#x1ecb;" horiz-adv-x="284" 
d="M83 -149q0 25 16.5 42t41.5 17t42 -17t17 -42t-17 -41.5t-42 -16.5t-41.5 16.5t-16.5 41.5zM83 715q0 25 16.5 42t41.5 17t42 -17t17 -42t-17 -41.5t-42 -16.5t-41.5 16.5t-16.5 41.5zM188 0h-92v491h92v-491z" />
    <glyph glyph-name="uni0237" unicode="&#x237;" horiz-adv-x="284" 
d="M96 491h92v-446q0 -59 -9 -100t-33 -73t-67 -60.5t-110 -62.5l-7 13q34 24 59.5 44.5t42 48.5t24.5 68t8 102v466z" />
    <glyph glyph-name="jcircumflex" unicode="&#x135;" horiz-adv-x="284" 
d="M96 491h92v-446q0 -59 -9 -100t-33 -73t-67 -60.5t-110 -62.5l-7 13q34 24 59.5 44.5t42 48.5t24.5 68t8 102v466zM-20 604l163 186h9l154 -186h-11l-148 99l-156 -99h-11z" />
    <glyph glyph-name="uni0137" unicode="&#x137;" horiz-adv-x="549" 
d="M520 491l-238 -212l267 -279h-117l-242 252l274 239h56zM188 0h-92v787h92v-787zM227 -126q0 23 15 39t42 16q28 0 42 -18.5t14 -46.5q0 -26 -10.5 -49t-28 -42.5t-39 -34t-42.5 -23.5l-2 6q10 6 21 16.5t20.5 24t15.5 27.5t6 28q-22 2 -38 18t-16 39z" />
    <glyph glyph-name="lacute" unicode="&#x13a;" horiz-adv-x="284" 
d="M188 0h-92v787h92v-787zM107 824h-13l86 166h110z" />
    <glyph glyph-name="lcaron" unicode="&#x13e;" horiz-adv-x="374" 
d="M188 0h-92v787h92v-787zM261 743q0 23 15 39t42 16q28 0 42 -18.5t14 -46.5q0 -26 -10.5 -49t-28 -42.5t-39 -34t-42.5 -23.5l-2 6q10 6 21 16.5t20.5 24t15.5 27.5t6 28q-22 2 -38 18t-16 39z" />
    <glyph glyph-name="uni013C" unicode="&#x13c;" horiz-adv-x="284" 
d="M188 0h-92v787h92v-787zM90 -126q0 23 15 39t42 16q28 0 42 -18.5t14 -46.5q0 -26 -10.5 -49t-28 -42.5t-39 -34t-42.5 -23.5l-2 6q10 6 21 16.5t20.5 24t15.5 27.5t6 28q-22 2 -38 18t-16 39z" />
    <glyph glyph-name="ldot" unicode="&#x140;" horiz-adv-x="373" 
d="M188 0h-92v787h92v-787zM256 405q0 25 16.5 42t41.5 17t42 -17t17 -42t-17 -41.5t-42 -16.5t-41.5 16.5t-16.5 41.5z" />
    <glyph glyph-name="lslash" unicode="&#x142;" horiz-adv-x="344" 
d="M218 456l123 61l23 -45l-146 -73v-399h-92v353l-124 -61l-22 45l146 73v377h92v-331z" />
    <glyph glyph-name="nacute" unicode="&#x144;" horiz-adv-x="614" 
d="M328 447q-21 0 -42.5 -5.5t-40.5 -17.5t-33.5 -32t-23.5 -48v-344h-92v491h92v-147q6 34 20 63t36.5 50t52.5 33t66 12q46 0 78.5 -14.5t52.5 -40t29 -61.5t9 -78v-308h-92v306q0 76 -30 108.5t-82 32.5zM303 604h-13l86 183h110z" />
    <glyph glyph-name="ncaron" unicode="&#x148;" horiz-adv-x="614" 
d="M328 447q-21 0 -42.5 -5.5t-40.5 -17.5t-33.5 -32t-23.5 -48v-344h-92v491h92v-147q6 34 20 63t36.5 50t52.5 33t66 12q46 0 78.5 -14.5t52.5 -40t29 -61.5t9 -78v-308h-92v306q0 76 -30 108.5t-82 32.5zM491 790l-163 -186h-9l-154 186h11l148 -99l156 99h11z" />
    <glyph glyph-name="uni0146" unicode="&#x146;" horiz-adv-x="614" 
d="M328 447q-21 0 -42.5 -5.5t-40.5 -17.5t-33.5 -32t-23.5 -48v-344h-92v491h92v-147q6 34 20 63t36.5 50t52.5 33t66 12q46 0 78.5 -14.5t52.5 -40t29 -61.5t9 -78v-308h-92v306q0 76 -30 108.5t-82 32.5zM256 -126q0 23 15 39t42 16q28 0 42 -18.5t14 -46.5
q0 -26 -10.5 -49t-28 -42.5t-39 -34t-42.5 -23.5l-2 6q10 6 21 16.5t20.5 24t15.5 27.5t6 28q-22 2 -38 18t-16 39z" />
    <glyph glyph-name="oe" unicode="&#x153;" horiz-adv-x="978" 
d="M573 299q-1 -8 -1 -16.5v-16.5q0 -49 12 -90t36 -71t59 -47t82 -17q26 0 52 6t49.5 20t42.5 37t31 57l12 -3q-43 -172 -219 -172q-71 0 -124.5 26.5t-86.5 75.5q-35 -48 -89.5 -75t-118.5 -27q-54 0 -102 19.5t-84 54t-57.5 81.5t-21.5 103q0 55 21.5 102.5t57.5 82
t84 54t102 19.5q66 0 121 -28.5t90 -77.5q34 50 87 78t116 28q44 0 82 -14t67.5 -40t47.5 -63.5t21 -85.5h-369zM470 244q0 36 -7.5 76t-25.5 73.5t-49 55t-78 21.5t-77.5 -21.5t-49 -54.5t-26 -73t-7.5 -77q0 -36 7.5 -76t25.5 -73.5t49 -55t78 -21.5t78 22t49 55.5
t25.5 73t7.5 75.5zM724 473q-34 0 -59.5 -12t-43 -31.5t-28.5 -44.5t-15 -51h258q-5 68 -31 103.5t-81 35.5z" />
    <glyph glyph-name="obreve" unicode="&#x14f;" horiz-adv-x="610" 
d="M570 244q0 -56 -21.5 -103t-57.5 -81.5t-84 -54t-102 -19.5t-102 19.5t-84 54t-57.5 81.5t-21.5 103q0 55 21.5 102.5t57.5 82t84 54t102 19.5t102 -19.5t84 -54t57.5 -82t21.5 -102.5zM465 244q0 36 -7.5 76t-25.5 73.5t-49 55t-78 21.5t-77.5 -21.5t-49 -54.5t-26 -73
t-7.5 -77q0 -36 7.5 -76t25.5 -73.5t49 -55t78 -21.5t78 22t49 55.5t25.5 73t7.5 75.5zM472 749q-6 -53 -26 -84.5t-45.5 -48t-51 -22t-43.5 -5.5q-19 0 -45 5.5t-50.5 22t-43.5 48t-25 84.5h45q11 -62 42.5 -91t79.5 -29q47 0 78 29t42 91h43z" />
    <glyph glyph-name="ohungarumlaut" unicode="&#x151;" horiz-adv-x="610" 
d="M570 244q0 -56 -21.5 -103t-57.5 -81.5t-84 -54t-102 -19.5t-102 19.5t-84 54t-57.5 81.5t-21.5 103q0 55 21.5 102.5t57.5 82t84 54t102 19.5t102 -19.5t84 -54t57.5 -82t21.5 -102.5zM465 244q0 36 -7.5 76t-25.5 73.5t-49 55t-78 21.5t-77.5 -21.5t-49 -54.5t-26 -73
t-7.5 -77q0 -36 7.5 -76t25.5 -73.5t49 -55t78 -21.5t78 22t49 55.5t25.5 73t7.5 75.5zM225 604h-13l86 183h110zM385 604h-13l86 183h110z" />
    <glyph glyph-name="omacron" unicode="&#x14d;" horiz-adv-x="610" 
d="M570 244q0 -56 -21.5 -103t-57.5 -81.5t-84 -54t-102 -19.5t-102 19.5t-84 54t-57.5 81.5t-21.5 103q0 55 21.5 102.5t57.5 82t84 54t102 19.5t102 -19.5t84 -54t57.5 -82t21.5 -102.5zM465 244q0 36 -7.5 76t-25.5 73.5t-49 55t-78 21.5t-77.5 -21.5t-49 -54.5t-26 -73
t-7.5 -77q0 -36 7.5 -76t25.5 -73.5t49 -55t78 -21.5t78 22t49 55.5t25.5 73t7.5 75.5zM143 716h334v-47h-334v47z" />
    <glyph glyph-name="uni1ECD" unicode="&#x1ecd;" horiz-adv-x="610" 
d="M570 244q0 -56 -21.5 -103t-57.5 -81.5t-84 -54t-102 -19.5t-102 19.5t-84 54t-57.5 81.5t-21.5 103q0 55 21.5 102.5t57.5 82t84 54t102 19.5t102 -19.5t84 -54t57.5 -82t21.5 -102.5zM465 244q0 36 -7.5 76t-25.5 73.5t-49 55t-78 21.5t-77.5 -21.5t-49 -54.5t-26 -73
t-7.5 -77q0 -36 7.5 -76t25.5 -73.5t49 -55t78 -21.5t78 22t49 55.5t25.5 73t7.5 75.5zM247 -149q0 25 16.5 42t41.5 17t42 -17t17 -42t-17 -41.5t-42 -16.5t-41.5 16.5t-16.5 41.5z" />
    <glyph glyph-name="racute" unicode="&#x155;" horiz-adv-x="397" 
d="M372 413q-12 2 -29.5 3.5t-37.5 1.5q-18 0 -36 -2.5t-34 -8.5t-28.5 -17.5t-18.5 -29.5v-360h-92v491h92v-131q11 63 58 102.5t126 39.5v-89v0zM223 604h-13l86 183h110z" />
    <glyph glyph-name="rcaron" unicode="&#x159;" horiz-adv-x="397" 
d="M372 413q-12 2 -29.5 3.5t-37.5 1.5q-18 0 -36 -2.5t-34 -8.5t-28.5 -17.5t-18.5 -29.5v-360h-92v491h92v-131q11 63 58 102.5t126 39.5v-89v0zM384 790l-163 -186h-9l-154 186h11l148 -99l156 99h11z" />
    <glyph glyph-name="uni0157" unicode="&#x157;" horiz-adv-x="397" 
d="M372 413q-12 2 -29.5 3.5t-37.5 1.5q-18 0 -36 -2.5t-34 -8.5t-28.5 -17.5t-18.5 -29.5v-360h-92v491h92v-131q11 63 58 102.5t126 39.5v-89v0zM86 -126q0 23 15 39t42 16q28 0 42 -18.5t14 -46.5q0 -26 -10.5 -49t-28 -42.5t-39 -34t-42.5 -23.5l-2 6q10 6 21 16.5
t20.5 24t15.5 27.5t6 28q-22 2 -38 18t-16 39z" />
    <glyph glyph-name="sacute" unicode="&#x15b;" horiz-adv-x="481" 
d="M233 -14q-33 0 -65.5 7t-59 20.5t-42.5 33t-16 43.5q0 20 13 33t36 13q15 0 24 -5t14.5 -13t8 -18t5.5 -21q3 -12 8 -22.5t14.5 -18.5t25 -13t39.5 -5q23 0 44.5 5.5t38 17t26.5 28t10 38.5q0 39 -31.5 61t-80.5 36l-53 15q-69 20 -101.5 56t-32.5 87q0 29 13.5 55
t37.5 45t58.5 30t76.5 11q34 0 64 -6t52.5 -16.5t35.5 -26t13 -34.5q0 -20 -11.5 -34t-34.5 -14q-19 0 -28.5 7.5t-15 18t-10 23.5t-13 23.5t-24.5 18t-44 7.5q-42 0 -72 -21.5t-30 -57.5q0 -31 23.5 -52t74.5 -35l53 -15q72 -20 112.5 -53.5t40.5 -96.5q0 -38 -17 -67
t-44.5 -48.5t-63 -29.5t-72.5 -10zM209 604h-13l86 183h110z" />
    <glyph glyph-name="scaron" unicode="&#x161;" horiz-adv-x="481" 
d="M233 -14q-33 0 -65.5 7t-59 20.5t-42.5 33t-16 43.5q0 20 13 33t36 13q15 0 24 -5t14.5 -13t8 -18t5.5 -21q3 -12 8 -22.5t14.5 -18.5t25 -13t39.5 -5q23 0 44.5 5.5t38 17t26.5 28t10 38.5q0 39 -31.5 61t-80.5 36l-53 15q-69 20 -101.5 56t-32.5 87q0 29 13.5 55
t37.5 45t58.5 30t76.5 11q34 0 64 -6t52.5 -16.5t35.5 -26t13 -34.5q0 -20 -11.5 -34t-34.5 -14q-19 0 -28.5 7.5t-15 18t-10 23.5t-13 23.5t-24.5 18t-44 7.5q-42 0 -72 -21.5t-30 -57.5q0 -31 23.5 -52t74.5 -35l53 -15q72 -20 112.5 -53.5t40.5 -96.5q0 -38 -17 -67
t-44.5 -48.5t-63 -29.5t-72.5 -10zM407 790l-163 -186h-9l-154 186h11l148 -99l156 99h11z" />
    <glyph glyph-name="scedilla" unicode="&#x15f;" horiz-adv-x="481" 
d="M233 -14q-33 0 -65.5 7t-59 20.5t-42.5 33t-16 43.5q0 20 13 33t36 13q15 0 24 -5t14.5 -13t8 -18t5.5 -21q3 -12 8 -22.5t14.5 -18.5t25 -13t39.5 -5q23 0 44.5 5.5t38 17t26.5 28t10 38.5q0 39 -31.5 61t-80.5 36l-53 15q-69 20 -101.5 56t-32.5 87q0 29 13.5 55
t37.5 45t58.5 30t76.5 11q34 0 64 -6t52.5 -16.5t35.5 -26t13 -34.5q0 -20 -11.5 -34t-34.5 -14q-19 0 -28.5 7.5t-15 18t-10 23.5t-13 23.5t-24.5 18t-44 7.5q-42 0 -72 -21.5t-30 -57.5q0 -31 23.5 -52t74.5 -35l53 -15q72 -20 112.5 -53.5t40.5 -96.5q0 -38 -17 -67
t-44.5 -48.5t-63 -29.5t-72.5 -10zM254 -4l-53 -94q12 9 26 14.5t31 5.5q35 0 57.5 -17t22.5 -54q0 -28 -18 -50t-44.5 -37t-57.5 -22.5t-58 -6.5l-3 6q33 3 57 15t40.5 28t24.5 33t8 31q0 23 -11.5 35t-38.5 12q-12 0 -22.5 -4t-18.5 -10l-24 19l52 96h30z" />
    <glyph glyph-name="scircumflex" unicode="&#x15d;" horiz-adv-x="481" 
d="M233 -14q-33 0 -65.5 7t-59 20.5t-42.5 33t-16 43.5q0 20 13 33t36 13q15 0 24 -5t14.5 -13t8 -18t5.5 -21q3 -12 8 -22.5t14.5 -18.5t25 -13t39.5 -5q23 0 44.5 5.5t38 17t26.5 28t10 38.5q0 39 -31.5 61t-80.5 36l-53 15q-69 20 -101.5 56t-32.5 87q0 29 13.5 55
t37.5 45t58.5 30t76.5 11q34 0 64 -6t52.5 -16.5t35.5 -26t13 -34.5q0 -20 -11.5 -34t-34.5 -14q-19 0 -28.5 7.5t-15 18t-10 23.5t-13 23.5t-24.5 18t-44 7.5q-42 0 -72 -21.5t-30 -57.5q0 -31 23.5 -52t74.5 -35l53 -15q72 -20 112.5 -53.5t40.5 -96.5q0 -38 -17 -67
t-44.5 -48.5t-63 -29.5t-72.5 -10zM78 604l163 186h9l154 -186h-11l-148 99l-156 -99h-11z" />
    <glyph glyph-name="uni0219" unicode="&#x219;" horiz-adv-x="481" 
d="M233 -14q-33 0 -65.5 7t-59 20.5t-42.5 33t-16 43.5q0 20 13 33t36 13q15 0 24 -5t14.5 -13t8 -18t5.5 -21q3 -12 8 -22.5t14.5 -18.5t25 -13t39.5 -5q23 0 44.5 5.5t38 17t26.5 28t10 38.5q0 39 -31.5 61t-80.5 36l-53 15q-69 20 -101.5 56t-32.5 87q0 29 13.5 55
t37.5 45t58.5 30t76.5 11q34 0 64 -6t52.5 -16.5t35.5 -26t13 -34.5q0 -20 -11.5 -34t-34.5 -14q-19 0 -28.5 7.5t-15 18t-10 23.5t-13 23.5t-24.5 18t-44 7.5q-42 0 -72 -21.5t-30 -57.5q0 -31 23.5 -52t74.5 -35l53 -15q72 -20 112.5 -53.5t40.5 -96.5q0 -38 -17 -67
t-44.5 -48.5t-63 -29.5t-72.5 -10zM190 -126q0 23 15 39t42 16q28 0 42 -18.5t14 -46.5q0 -26 -10.5 -49t-28 -42.5t-39 -34t-42.5 -23.5l-2 6q10 6 21 16.5t20.5 24t15.5 27.5t6 28q-22 2 -38 18t-16 39z" />
    <glyph glyph-name="tcaron" unicode="&#x165;" horiz-adv-x="456" 
d="M15 491h99v108l91 54v-162h186v-51h-186v-309q0 -30 6.5 -49.5t17 -31t24.5 -15.5t30 -4q33 0 57 16t41 46l12 -5q-22 -47 -56.5 -74.5t-91.5 -27.5q-27 0 -51 5.5t-42 20t-28 40.5t-10 67v321h-99v51zM328 743q0 23 15 39t42 16q28 0 42 -18.5t14 -46.5q0 -26 -10.5 -49
t-28 -42.5t-39 -34t-42.5 -23.5l-2 6q10 6 21 16.5t20.5 24t15.5 27.5t6 28q-22 2 -38 18t-16 39z" />
    <glyph glyph-name="uni0163" unicode="&#x163;" horiz-adv-x="406" 
d="M15 491h99v108l91 54v-162h186v-51h-186v-309q0 -30 6.5 -49.5t17 -31t24.5 -15.5t30 -4q33 0 57 16t41 46l12 -5q-22 -47 -56.5 -74.5t-91.5 -27.5q-27 0 -51 5.5t-42 20t-28 40.5t-10 67v321h-99v51zM179 -126q0 23 15 39t42 16q28 0 42 -18.5t14 -46.5
q0 -26 -10.5 -49t-28 -42.5t-39 -34t-42.5 -23.5l-2 6q10 6 21 16.5t20.5 24t15.5 27.5t6 28q-22 2 -38 18t-16 39z" />
    <glyph glyph-name="ubreve" unicode="&#x16d;" horiz-adv-x="603" 
d="M415 491h92v-491h-92v491zM415 137q-12 -68 -57.5 -109.5t-109.5 -41.5q-166 0 -166 208v297h92v-309q0 -76 29 -111t81 -35q42 0 76.5 22.5t54.5 78.5zM470 749q-6 -53 -26 -84.5t-45.5 -48t-51 -22t-43.5 -5.5q-19 0 -45 5.5t-50.5 22t-43.5 48t-25 84.5h45
q11 -62 42.5 -91t79.5 -29q47 0 78 29t42 91h43z" />
    <glyph glyph-name="uhungarumlaut" unicode="&#x171;" horiz-adv-x="603" 
d="M415 491h92v-491h-92v491zM415 137q-12 -68 -57.5 -109.5t-109.5 -41.5q-166 0 -166 208v297h92v-309q0 -76 29 -111t81 -35q42 0 76.5 22.5t54.5 78.5zM208 604h-13l86 183h110zM368 604h-13l86 183h110z" />
    <glyph glyph-name="umacron" unicode="&#x16b;" horiz-adv-x="603" 
d="M415 491h92v-491h-92v491zM415 137q-12 -68 -57.5 -109.5t-109.5 -41.5q-166 0 -166 208v297h92v-309q0 -76 29 -111t81 -35q42 0 76.5 22.5t54.5 78.5zM146 716h334v-47h-334v47z" />
    <glyph glyph-name="uogonek" unicode="&#x173;" horiz-adv-x="603" 
d="M415 491h92v-491h-92v491zM415 137q-12 -68 -57.5 -109.5t-109.5 -41.5q-166 0 -166 208v297h92v-309q0 -76 29 -111t81 -35q42 0 76.5 22.5t54.5 78.5zM509 -214q-19 -12 -43.5 -20.5t-50.5 -8.5q-19 0 -36 4.5t-30.5 15t-21.5 26t-8 38.5q0 24 11.5 45.5t31 41.5
t45 37.5t53.5 34.5h10q-35 -33 -56.5 -71t-21.5 -70q0 -38 24.5 -54.5t53.5 -16.5q19 0 36 6z" />
    <glyph glyph-name="uring" unicode="&#x16f;" horiz-adv-x="603" 
d="M415 491h92v-491h-92v491zM415 137q-12 -68 -57.5 -109.5t-109.5 -41.5q-166 0 -166 208v297h92v-309q0 -76 29 -111t81 -35q42 0 76.5 22.5t54.5 78.5zM407 683q0 -21 -8 -38.5t-22 -31t-32.5 -21t-39.5 -7.5t-39.5 7.5t-32.5 21t-22 31t-8 38.5t8 38.5t22 31t32.5 21
t39.5 7.5t39.5 -7.5t32.5 -21t22 -31t8 -38.5zM369 683q0 29 -19 47t-45 18q-28 0 -45.5 -19t-17.5 -46t17.5 -46t45.5 -19q30 0 47 19t17 46z" />
    <glyph glyph-name="utilde" unicode="&#x169;" horiz-adv-x="603" 
d="M415 491h92v-491h-92v491zM415 137q-12 -68 -57.5 -109.5t-109.5 -41.5q-166 0 -166 208v297h92v-309q0 -76 29 -111t81 -35q42 0 76.5 22.5t54.5 78.5zM496 775l7 -4l-47 -117h-258l-45 -47l-7 4l47 117h258z" />
    <glyph glyph-name="uni1EE5" unicode="&#x1ee5;" horiz-adv-x="603" 
d="M415 491h92v-491h-92v491zM415 137q-12 -68 -57.5 -109.5t-109.5 -41.5q-166 0 -166 208v297h92v-309q0 -76 29 -111t81 -35q42 0 76.5 22.5t54.5 78.5zM239 -149q0 25 16.5 42t41.5 17t42 -17t17 -42t-17 -41.5t-42 -16.5t-41.5 16.5t-16.5 41.5z" />
    <glyph glyph-name="wacute" unicode="&#x1e83;" horiz-adv-x="743" 
d="M426 491l132 -367l130 367h45l-177 -491h-50l-135 368l-134 -368h-50l-177 491h101l128 -367l135 367h52zM410 604h-13l86 183h110z" />
    <glyph glyph-name="wcircumflex" unicode="&#x175;" horiz-adv-x="743" 
d="M426 491l132 -367l130 367h45l-177 -491h-50l-135 368l-134 -368h-50l-177 491h101l128 -367l135 367h52zM240 604l163 186h9l154 -186h-11l-148 99l-156 -99h-11z" />
    <glyph glyph-name="wdieresis" unicode="&#x1e85;" horiz-adv-x="743" 
d="M426 491l132 -367l130 367h45l-177 -491h-50l-135 368l-134 -368h-50l-177 491h101l128 -367l135 367h52zM240 691q0 25 16.5 42t41.5 17t42 -17t17 -42t-17 -41.5t-42 -16.5t-41.5 16.5t-16.5 41.5zM452 691q0 25 16.5 42t41.5 17t42 -17t17 -42t-17 -41.5t-42 -16.5
t-41.5 16.5t-16.5 41.5z" />
    <glyph glyph-name="wgrave" unicode="&#x1e81;" horiz-adv-x="743" 
d="M426 491l132 -367l130 367h45l-177 -491h-50l-135 368l-134 -368h-50l-177 491h101l128 -367l135 367h52zM220 787h110l86 -183h-13z" />
    <glyph glyph-name="ycircumflex" unicode="&#x177;" horiz-adv-x="508" 
d="M104 491l162 -390l172 390h51l-327 -733h-54l110 239l-217 494h103zM114 604l163 186h9l154 -186h-11l-148 99l-156 -99h-11z" />
    <glyph glyph-name="ygrave" unicode="&#x1ef3;" horiz-adv-x="508" 
d="M104 491l162 -390l172 390h51l-327 -733h-54l110 239l-217 494h103zM129 787h110l86 -183h-13z" />
    <glyph glyph-name="uni0233" unicode="&#x233;" horiz-adv-x="508" 
d="M104 491l162 -390l172 390h51l-327 -733h-54l110 239l-217 494h103zM107 716h334v-47h-334v47z" />
    <glyph glyph-name="zacute" unicode="&#x17a;" horiz-adv-x="513" 
d="M148 41h320v-41h-423v41l311 409h-275v41h379v-41zM251 604h-13l86 183h110z" />
    <glyph glyph-name="zcaron" unicode="&#x17e;" horiz-adv-x="513" 
d="M148 41h320v-41h-423v41l311 409h-275v41h379v-41zM449 790l-163 -186h-9l-154 186h11l148 -99l156 99h11z" />
    <glyph glyph-name="zdotaccent" unicode="&#x17c;" horiz-adv-x="513" 
d="M148 41h320v-41h-423v41l311 409h-275v41h379v-41zM238 681q0 25 16.5 42t41.5 17t42 -17t17 -42t-17 -41.5t-42 -16.5t-41.5 16.5t-16.5 41.5z" />
    <glyph glyph-name="ellipsis" unicode="&#x2026;" horiz-adv-x="750" 
d="M560 51q0 27 19 46t46 19t46 -19t19 -46t-19 -46t-46 -19t-46 19t-19 46zM310 51q0 27 19 46t46 19t46 -19t19 -46t-19 -46t-46 -19t-46 19t-19 46zM61 51q0 27 19 46t46 19t46 -19t19 -46t-19 -46t-46 -19t-46 19t-19 46z" />
    <glyph glyph-name="endash" unicode="&#x2013;" horiz-adv-x="437" 
d="M28 223v60h380v-60h-380z" />
    <glyph glyph-name="emdash" unicode="&#x2014;" horiz-adv-x="642" 
d="M27 223v60h588v-60h-588z" />
    <glyph glyph-name="guilsinglleft" unicode="&#x2039;" horiz-adv-x="275" 
d="M16 241v8l212 206h12l-130 -210l130 -211h-11z" />
    <glyph glyph-name="guilsinglright" unicode="&#x203a;" horiz-adv-x="275" 
d="M27 34h-11l130 211l-130 210h12l212 -206v-8z" />
    <glyph glyph-name="quoteleft" unicode="&#x2018;" horiz-adv-x="270" 
d="M200 619q0 -27 -17 -46t-48 -19q-35 0 -50 23t-15 52q0 30 12.5 57t32.5 49.5t45 39.5t49 27l3 -7q-12 -7 -25 -19.5t-23.5 -27.5t-17.5 -32t-7 -32q26 -2 43.5 -20.5t17.5 -44.5z" />
    <glyph glyph-name="quoteright" unicode="&#x2019;" horiz-adv-x="270" 
d="M70 737q0 27 17 46t48 19q32 0 48.5 -21.5t16.5 -53.5q0 -30 -12.5 -57t-32.5 -49.5t-45 -39.5t-49 -27l-3 7q12 7 25 19.5t23.5 27.5t17.5 32t7 32q-26 2 -43.5 20.5t-17.5 44.5z" />
    <glyph glyph-name="quotedblleft" unicode="&#x201c;" horiz-adv-x="440" 
d="M370 619q0 -27 -17 -46t-48 -19q-35 0 -50 23t-15 52q0 30 12.5 57t32.5 49.5t45 39.5t49 27l3 -7q-12 -7 -25 -19.5t-23.5 -27.5t-17.5 -32t-7 -32q26 -2 43.5 -20.5t17.5 -44.5zM200 619q0 -27 -17 -46t-48 -19q-35 0 -50 23t-15 52q0 30 12.5 57t32.5 49.5t45 39.5
t49 27l3 -7q-12 -7 -25 -19.5t-23.5 -27.5t-17.5 -32t-7 -32q26 -2 43.5 -20.5t17.5 -44.5z" />
    <glyph glyph-name="quotedblright" unicode="&#x201d;" horiz-adv-x="440" 
d="M240 737q0 27 17 46t48 19q32 0 48.5 -21.5t16.5 -53.5q0 -30 -12.5 -57t-32.5 -49.5t-45 -39.5t-49 -27l-3 7q12 7 25 19.5t23.5 27.5t17.5 32t7 32q-26 2 -43.5 20.5t-17.5 44.5zM70 737q0 27 17 46t48 19q32 0 48.5 -21.5t16.5 -53.5q0 -30 -12.5 -57t-32.5 -49.5
t-45 -39.5t-49 -27l-3 7q12 7 25 19.5t23.5 27.5t17.5 32t7 32q-26 2 -43.5 20.5t-17.5 44.5z" />
    <glyph glyph-name="quotesinglbase" unicode="&#x201a;" horiz-adv-x="270" 
d="M70 51q0 27 17 46t48 19q32 0 48.5 -21.5t16.5 -53.5q0 -30 -12.5 -57t-32.5 -49.5t-45 -39.5t-49 -27l-3 7q12 7 25 19.5t23.5 27.5t17.5 32t7 32q-26 2 -43.5 20.5t-17.5 44.5z" />
    <glyph glyph-name="quotedblbase" unicode="&#x201e;" horiz-adv-x="440" 
d="M240 51q0 27 17 46t48 19q32 0 48.5 -21.5t16.5 -53.5q0 -30 -12.5 -57t-32.5 -49.5t-45 -39.5t-49 -27l-3 7q12 7 25 19.5t23.5 27.5t17.5 32t7 32q-26 2 -43.5 20.5t-17.5 44.5zM70 51q0 27 17 46t48 19q32 0 48.5 -21.5t16.5 -53.5q0 -30 -12.5 -57t-32.5 -49.5
t-45 -39.5t-49 -27l-3 7q12 7 25 19.5t23.5 27.5t17.5 32t7 32q-26 2 -43.5 20.5t-17.5 44.5z" />
    <glyph glyph-name="bullet" unicode="&#x2022;" horiz-adv-x="409" 
d="M37 259q0 34 13 64t35.5 52.5t52 35.5t63.5 13q36 0 67.5 -13t54.5 -35.5t36 -52.5t13 -64q0 -36 -13 -67t-36 -54t-54.5 -36t-67.5 -13q-34 0 -63.5 13t-52 36t-35.5 54t-13 67z" />
    <glyph glyph-name="minus" unicode="&#x2212;" horiz-adv-x="538" 
d="M507 282v-60h-476v60h476z" />
    <glyph glyph-name="Euro" unicode="&#x20ac;" horiz-adv-x="890" 
d="M154 474q17 62 51.5 111t83 83.5t108 52.5t125.5 18q34 0 70 -4t71.5 -13t69.5 -24.5t64 -37.5v-137h-9q-23 57 -53 92.5t-65 55.5t-73 27.5t-75 7.5q-44 0 -86.5 -13t-77.5 -40.5t-61.5 -71.5t-38.5 -107h238l-12 -42h-232q-2 -17 -3 -34t-1 -35v-16t1 -16h196l-12 -42
h-181q9 -74 34.5 -125t62 -83.5t81.5 -47t92 -14.5q37 0 75.5 7.5t73.5 27.5t66 55.5t53 92.5h10v-137q-30 -23 -64.5 -38t-70.5 -24t-72.5 -13t-70.5 -4q-71 0 -134.5 21t-113 60.5t-83 95.5t-45.5 126h-156l12 42h139q-1 8 -1 16v16q0 18 1.5 35t3.5 34h-104l12 42h101z
" />
    <glyph glyph-name="uniFB01" unicode="&#xfb01;" horiz-adv-x="644" 
d="M25 491h99q1 142 51.5 221.5t148.5 79.5q36 0 60.5 -14t24.5 -40q0 -21 -12.5 -33t-31.5 -12t-31.5 7.5t-23.5 17t-23 17t-30 7.5t-33.5 -13.5t-23 -43.5t-5.5 -78t18 -116h164v-51h-161v-440h-92v440h-99v51zM443 715q0 25 16.5 42t41.5 17t42 -17t17 -42t-17 -41.5
t-42 -16.5t-41.5 16.5t-16.5 41.5zM548 0h-92v491h92v-491z" />
    <glyph glyph-name="uniFB02" unicode="&#xfb02;" horiz-adv-x="639" 
d="M25 491h99q1 142 51.5 221.5t148.5 79.5q36 0 60.5 -14t24.5 -40q0 -21 -12.5 -33t-31.5 -12t-31.5 7.5t-23.5 17t-23 17t-30 7.5t-33.5 -13.5t-23 -43.5t-5.5 -78t18 -116h164v-51h-161v-440h-92v440h-99v51zM543 0h-92v787h92v-787z" />
    <glyph glyph-name="breve" unicode="&#x2d8;" horiz-adv-x="390" 
d="M360 749q-6 -53 -26 -84.5t-45.5 -48t-51 -22t-43.5 -5.5q-19 0 -45 5.5t-50.5 22t-43.5 48t-25 84.5h45q11 -62 42.5 -91t79.5 -29q47 0 78 29t42 91h43z" />
    <glyph glyph-name="caron" unicode="&#x2c7;" horiz-adv-x="386" 
d="M356 790l-163 -186h-9l-154 186h11l148 -99l156 99h11z" />
    <glyph glyph-name="circumflex" unicode="&#x2c6;" horiz-adv-x="386" 
d="M30 604l163 186h9l154 -186h-11l-148 99l-156 -99h-11z" />
    <glyph glyph-name="dotaccent" unicode="&#x2d9;" horiz-adv-x="189" 
d="M36 681q0 25 16.5 42t41.5 17t42 -17t17 -42t-17 -41.5t-42 -16.5t-41.5 16.5t-16.5 41.5z" />
    <glyph glyph-name="hungarumlaut" unicode="&#x2dd;" horiz-adv-x="397" 
d="M38 604h-13l86 183h110zM198 604h-13l86 183h110z" />
    <glyph glyph-name="glyph331" horiz-adv-x="270" 
d="M77 -126q0 23 15 39t42 16q28 0 42 -18.5t14 -46.5q0 -26 -10.5 -49t-28 -42.5t-39 -34t-42.5 -23.5l-2 6q10 6 21 16.5t20.5 24t15.5 27.5t6 28q-22 2 -38 18t-16 39z" />
    <glyph glyph-name="ogonek" unicode="&#x2db;" horiz-adv-x="500" 
d="M405 -214q-19 -12 -43.5 -20.5t-50.5 -8.5q-19 0 -36 4.5t-30.5 15t-21.5 26t-8 38.5q0 24 11.5 45.5t31 41.5t45 37.5t53.5 34.5h10q-35 -33 -56.5 -71t-21.5 -70q0 -38 24.5 -54.5t53.5 -16.5q19 0 36 6z" />
    <glyph glyph-name="ring" unicode="&#x2da;" horiz-adv-x="264" 
d="M234 683q0 -21 -8 -38.5t-22 -31t-32.5 -21t-39.5 -7.5t-39.5 7.5t-32.5 21t-22 31t-8 38.5t8 38.5t22 31t32.5 21t39.5 7.5t39.5 -7.5t32.5 -21t22 -31t8 -38.5zM196 683q0 29 -19 47t-45 18q-28 0 -45.5 -19t-17.5 -46t17.5 -46t45.5 -19q30 0 47 19t17 46z" />
    <glyph glyph-name="tilde" unicode="&#x2dc;" horiz-adv-x="417" 
d="M380 775l7 -4l-47 -117h-258l-45 -47l-7 4l47 117h258z" />
    <glyph glyph-name="glyph335" horiz-adv-x="209" 
d="M38 824h-13l86 166h110z" />
    <glyph glyph-name="glyph336" horiz-adv-x="390" 
d="M360 984q-6 -53 -26 -84.5t-45.5 -48t-51 -22t-43.5 -5.5q-19 0 -45 5.5t-50.5 22t-43.5 48t-25 84.5h45q11 -62 42.5 -91t79.5 -29q47 0 78 29t42 91h43z" />
    <glyph glyph-name="glyph337" horiz-adv-x="386" 
d="M345 990h11l-163 -166h-9l-154 166h11l148 -79z" />
    <glyph glyph-name="glyph338" horiz-adv-x="280" 
d="M146 -4l-53 -94q12 9 26 14.5t31 5.5q35 0 57.5 -17t22.5 -54q0 -28 -18 -50t-44.5 -37t-57.5 -22.5t-58 -6.5l-3 6q33 3 57 15t40.5 28t24.5 33t8 31q0 23 -11.5 35t-38.5 12q-12 0 -22.5 -4t-18.5 -10l-24 19l52 96h30z" />
    <glyph glyph-name="glyph339" horiz-adv-x="386" 
d="M30 824l163 166h9l154 -166h-11l-148 79l-156 -79h-11z" />
    <glyph glyph-name="glyph340" horiz-adv-x="436" 
d="M49 911q0 25 16.5 42t41.5 17t42 -17t17 -42t-17 -41.5t-42 -16.5t-41.5 16.5t-16.5 41.5zM281 911q0 25 16.5 42t41.5 17t42 -17t17 -42t-17 -41.5t-42 -16.5t-41.5 16.5t-16.5 41.5z" />
    <glyph glyph-name="glyph341" horiz-adv-x="189" 
d="M37 911q0 25 16.5 42t41.5 17t42 -17t17 -42t-17 -41.5t-42 -16.5t-41.5 16.5t-16.5 41.5z" />
    <glyph glyph-name="glyph342" horiz-adv-x="209" 
d="M25 990h110l86 -166h-13z" />
    <glyph glyph-name="glyph343" horiz-adv-x="397" 
d="M38 824h-13l86 166h110zM193 824h-13l86 166h110z" />
    <glyph glyph-name="glyph344" horiz-adv-x="434" 
d="M50 935h334v-47h-334v47z" />
    <glyph glyph-name="glyph345" horiz-adv-x="500" 
d="M311 -243q-19 0 -36 4.5t-30.5 15t-21.5 26t-8 38.5q0 24 11.5 45.5t31 41.5t45 37.5t53.5 34.5h10q-35 -33 -56.5 -71t-21.5 -70q0 -38 24.5 -54.5t53.5 -16.5q19 0 36 6l3 -8q-19 -12 -43.5 -20.5t-50.5 -8.5z" />
    <glyph glyph-name="glyph346" horiz-adv-x="264" 
d="M234 913q0 -21 -8 -38.5t-22 -31t-32.5 -21t-39.5 -7.5t-39.5 7.5t-32.5 21t-22 31t-8 38.5t8 38.5t22 31t32.5 21t39.5 7.5t39.5 -7.5t32.5 -21t22 -31t8 -38.5zM196 913q0 29 -19 47t-45 18q-28 0 -45.5 -19t-17.5 -46t17.5 -46t45.5 -19q30 0 47 19t17 46z" />
    <glyph glyph-name="glyph347" horiz-adv-x="417" 
d="M380 991l7 -4l-47 -117h-258l-45 -47l-7 4l47 117h258z" />
    <glyph glyph-name="glyph348" horiz-adv-x="283" 
d="M83 715q0 25 16.5 42t41.5 17t42 -17t17 -42t-17 -41.5t-42 -16.5t-41.5 16.5t-16.5 41.5z" />
    <glyph glyph-name="uni021A" unicode="&#x21a;" horiz-adv-x="704" 
d="M404 0h-104v739h-280v48h664v-48h-280v-739zM296 -126q0 23 15 39t42 16q28 0 42 -18.5t14 -46.5q0 -26 -10.5 -49t-28 -42.5t-39 -34t-42.5 -23.5l-2 6q10 6 21 16.5t20.5 24t15.5 27.5t6 28q-22 2 -38 18t-16 39z" />
    <glyph glyph-name="uni021B" unicode="&#x21b;" horiz-adv-x="406" 
d="M15 491h99v108l91 54v-162h186v-51h-186v-309q0 -30 6.5 -49.5t17 -31t24.5 -15.5t30 -4q33 0 57 16t41 46l12 -5q-22 -47 -56.5 -74.5t-91.5 -27.5q-27 0 -51 5.5t-42 20t-28 40.5t-10 67v321h-99v51zM179 -126q0 23 15 39t42 16q28 0 42 -18.5t14 -46.5
q0 -26 -10.5 -49t-28 -42.5t-39 -34t-42.5 -23.5l-2 6q10 6 21 16.5t20.5 24t15.5 27.5t6 28q-22 2 -38 18t-16 39z" />
  </font>
</defs>
</svg>
